<?xml version="1.0" encoding="utf-8"?>
<svg id="master-artboard" viewBox="0 0 265.50115966796875 191.4796905517578" version="1.1" xmlns="http://www.w3.org/2000/svg" x="0px" y="0px" style="enable-background:new 0 0 700 490;" width="265.50115966796875px" height="191.4796905517578px"><rect id="ee-background" x="0" y="0" width="265.50115966796875" height="191.4796905517578" style="fill: white; fill-opacity: 0; pointer-events: none;"/>

<linearGradient id="SVGID_9_" gradientUnits="userSpaceOnUse" x1="2342.1711" y1="-251.8394" x2="2400.7974" y2="-288.8564" gradientTransform="matrix(-1.12 0.7502 1.073 1.5365 3452.634 -1091.4546)">
			<stop offset="0" style="stop-color:#256A00"/>
			<stop offset="5.732407e-02" style="stop-color:#287004"/>
			<stop offset="0.5297" style="stop-color:#3EA027"/>
			<stop offset="1" style="stop-color:#6CA735"/>
		</linearGradient><linearGradient id="SVGID_10_" gradientUnits="userSpaceOnUse" x1="2356.5349" y1="-259.5261" x2="2422.5166" y2="-282.5899" gradientTransform="matrix(-1.12 0.7502 1.073 1.5365 3452.634 -1091.4546)">
			<stop offset="0" style="stop-color:#256A00"/>
			<stop offset="5.732407e-02" style="stop-color:#287004"/>
			<stop offset="0.5297" style="stop-color:#3EA027"/>
			<stop offset="1" style="stop-color:#6CA735"/>
		</linearGradient><linearGradient id="SVGID_11_" gradientUnits="userSpaceOnUse" x1="2491.2466" y1="-387.2103" x2="2589.9434" y2="-421.7096" gradientTransform="matrix(-0.8245 0.5659 0.5659 0.8245 2837.5903 -829.6683)">
			<stop offset="0" style="stop-color:#256A00"/>
			<stop offset="5.732407e-02" style="stop-color:#287004"/>
			<stop offset="0.5297" style="stop-color:#3EA027"/>
			<stop offset="1" style="stop-color:#6CA735"/>
		</linearGradient><linearGradient id="SVGID_12_" gradientUnits="userSpaceOnUse" x1="2493.1658" y1="-389.8144" x2="2577.5525" y2="-419.3116" gradientTransform="matrix(-0.8245 0.5659 0.5659 0.8245 2837.5903 -829.6683)">
			<stop offset="0" style="stop-color:#256A00"/>
			<stop offset="5.732407e-02" style="stop-color:#287004"/>
			<stop offset="0.5297" style="stop-color:#3EA027"/>
			<stop offset="1" style="stop-color:#6CA735"/>
		</linearGradient><linearGradient id="SVGID_13_" gradientUnits="userSpaceOnUse" x1="2498.7495" y1="-383.6251" x2="2576.3586" y2="-410.7533" gradientTransform="matrix(-0.8245 0.5659 0.5659 0.8245 2837.5903 -829.6683)">
			<stop offset="0" style="stop-color:#256A00"/>
			<stop offset="5.732407e-02" style="stop-color:#287004"/>
			<stop offset="0.5297" style="stop-color:#3EA027"/>
			<stop offset="1" style="stop-color:#6CA735"/>
		</linearGradient><linearGradient id="SVGID_14_" gradientUnits="userSpaceOnUse" x1="2506.7007" y1="-386.1035" x2="2564.229" y2="-406.2124" gradientTransform="matrix(-0.8245 0.5659 0.5659 0.8245 2837.5903 -829.6683)">
			<stop offset="0" style="stop-color:#256A00"/>
			<stop offset="5.732407e-02" style="stop-color:#287004"/>
			<stop offset="0.5297" style="stop-color:#3EA027"/>
			<stop offset="1" style="stop-color:#6CA735"/>
		</linearGradient><linearGradient id="SVGID_15_" gradientUnits="userSpaceOnUse" x1="2509.1001" y1="-391.2265" x2="2556.1694" y2="-407.6796" gradientTransform="matrix(-0.8245 0.5659 0.5659 0.8245 2837.5903 -829.6683)">
			<stop offset="0" style="stop-color:#256A00"/>
			<stop offset="5.732407e-02" style="stop-color:#287004"/>
			<stop offset="0.5297" style="stop-color:#3EA027"/>
			<stop offset="1" style="stop-color:#6CA735"/>
		</linearGradient><linearGradient id="SVGID_16_" gradientUnits="userSpaceOnUse" x1="2507.3499" y1="-396.8588" x2="2554.2393" y2="-413.2488" gradientTransform="matrix(-0.8245 0.5659 0.5659 0.8245 2837.5903 -829.6683)">
			<stop offset="0" style="stop-color:#256A00"/>
			<stop offset="5.732407e-02" style="stop-color:#287004"/>
			<stop offset="0.5297" style="stop-color:#3EA027"/>
			<stop offset="1" style="stop-color:#6CA735"/>
		</linearGradient><linearGradient id="SVGID_17_" gradientUnits="userSpaceOnUse" x1="2020.645" y1="-919.089" x2="2079.2715" y2="-956.1063" gradientTransform="matrix(-0.4742 -1.2619 -1.7412 0.6931 -93.293 3492.4446)">
			<stop offset="0" style="stop-color:#256A00"/>
			<stop offset="5.732407e-02" style="stop-color:#287004"/>
			<stop offset="0.5297" style="stop-color:#3EA027"/>
			<stop offset="1" style="stop-color:#6CA735"/>
		</linearGradient><linearGradient id="SVGID_18_" gradientUnits="userSpaceOnUse" x1="2035.0088" y1="-926.7767" x2="2100.99" y2="-949.8403" gradientTransform="matrix(-0.4742 -1.2619 -1.7412 0.6931 -93.293 3492.4446)">
			<stop offset="0" style="stop-color:#256A00"/>
			<stop offset="5.732407e-02" style="stop-color:#287004"/>
			<stop offset="0.5297" style="stop-color:#3EA027"/>
			<stop offset="1" style="stop-color:#6CA735"/>
		</linearGradient><linearGradient id="SVGID_19_" gradientUnits="userSpaceOnUse" x1="2068.0925" y1="-1632.0465" x2="2166.7891" y2="-1666.5458" gradientTransform="matrix(-0.3623 -0.9321 -0.9321 0.3623 -206.9836 2833.7251)">
			<stop offset="0" style="stop-color:#256A00"/>
			<stop offset="5.732407e-02" style="stop-color:#287004"/>
			<stop offset="0.5297" style="stop-color:#3EA027"/>
			<stop offset="1" style="stop-color:#6CA735"/>
		</linearGradient><linearGradient id="SVGID_20_" gradientUnits="userSpaceOnUse" x1="2070.0125" y1="-1634.6509" x2="2154.3982" y2="-1664.1478" gradientTransform="matrix(-0.3623 -0.9321 -0.9321 0.3623 -206.9836 2833.7251)">
			<stop offset="0" style="stop-color:#256A00"/>
			<stop offset="5.732407e-02" style="stop-color:#287004"/>
			<stop offset="0.5297" style="stop-color:#3EA027"/>
			<stop offset="1" style="stop-color:#6CA735"/>
		</linearGradient><linearGradient id="SVGID_21_" gradientUnits="userSpaceOnUse" x1="2075.5959" y1="-1628.4615" x2="2153.2046" y2="-1655.5895" gradientTransform="matrix(-0.3623 -0.9321 -0.9321 0.3623 -206.9836 2833.7251)">
			<stop offset="0" style="stop-color:#256A00"/>
			<stop offset="5.732407e-02" style="stop-color:#287004"/>
			<stop offset="0.5297" style="stop-color:#3EA027"/>
			<stop offset="1" style="stop-color:#6CA735"/>
		</linearGradient><linearGradient id="SVGID_22_" gradientUnits="userSpaceOnUse" x1="2083.5479" y1="-1630.9402" x2="2141.075" y2="-1651.0487" gradientTransform="matrix(-0.3623 -0.9321 -0.9321 0.3623 -206.9836 2833.7251)">
			<stop offset="0" style="stop-color:#256A00"/>
			<stop offset="5.732407e-02" style="stop-color:#287004"/>
			<stop offset="0.5297" style="stop-color:#3EA027"/>
			<stop offset="1" style="stop-color:#6CA735"/>
		</linearGradient><linearGradient id="SVGID_23_" gradientUnits="userSpaceOnUse" x1="2085.946" y1="-1636.0626" x2="2133.0154" y2="-1652.5156" gradientTransform="matrix(-0.3623 -0.9321 -0.9321 0.3623 -206.9836 2833.7251)">
			<stop offset="0" style="stop-color:#256A00"/>
			<stop offset="5.732407e-02" style="stop-color:#287004"/>
			<stop offset="0.5297" style="stop-color:#3EA027"/>
			<stop offset="1" style="stop-color:#6CA735"/>
		</linearGradient><linearGradient id="SVGID_24_" gradientUnits="userSpaceOnUse" x1="2084.196" y1="-1641.6952" x2="2131.085" y2="-1658.0852" gradientTransform="matrix(-0.3623 -0.9321 -0.9321 0.3623 -206.9836 2833.7251)">
			<stop offset="0" style="stop-color:#256A00"/>
			<stop offset="5.732407e-02" style="stop-color:#287004"/>
			<stop offset="0.5297" style="stop-color:#3EA027"/>
			<stop offset="1" style="stop-color:#6CA735"/>
		</linearGradient><linearGradient id="SVGID_27_" gradientUnits="userSpaceOnUse" x1="625.2307" y1="244.7762" x2="552.6257" y2="282.5684">
				<stop offset="0.3131" style="stop-color:#F3EDCB"/>
				<stop offset="0.6485" style="stop-color:#E8BD23"/>
				<stop offset="0.699" style="stop-color:#E4B822"/>
				<stop offset="0.7595" style="stop-color:#D7A91E"/>
				<stop offset="0.8251" style="stop-color:#C39117"/>
				<stop offset="0.8938" style="stop-color:#A6700E"/>
				<stop offset="0.9464" style="stop-color:#8C5106"/>
			</linearGradient><linearGradient id="SVGID_28_" gradientUnits="userSpaceOnUse" x1="589.146" y1="262.0029" x2="571.4988" y2="270.9573">
				<stop offset="0.3131" style="stop-color:#F3EDCB"/>
				<stop offset="0.6485" style="stop-color:#E8BD23"/>
				<stop offset="0.699" style="stop-color:#E4B822"/>
				<stop offset="0.7595" style="stop-color:#D7A91E"/>
				<stop offset="0.8251" style="stop-color:#C39117"/>
				<stop offset="0.8938" style="stop-color:#A6700E"/>
				<stop offset="0.9464" style="stop-color:#8C5106"/>
			</linearGradient><linearGradient id="SVGID_29_" gradientUnits="userSpaceOnUse" x1="617.9149" y1="315.9845" x2="546.8971" y2="292.6567">
				<stop offset="0" style="stop-color:#F3EDCB"/>
				<stop offset="0.5897" style="stop-color:#E8BD23"/>
				<stop offset="1" style="stop-color:#8C5106"/>
			</linearGradient><linearGradient id="SVGID_30_" gradientUnits="userSpaceOnUse" x1="610.313" y1="309.5748" x2="561.6508" y2="289.7211">
				<stop offset="0" style="stop-color:#F3EDCB"/>
				<stop offset="0.5897" style="stop-color:#E8BD23"/>
				<stop offset="1" style="stop-color:#8C5106"/>
			</linearGradient><linearGradient id="SVGID_31_" gradientUnits="userSpaceOnUse" x1="492.8015" y1="316.8726" x2="552.035" y2="285.3871">
				<stop offset="0.1444" style="stop-color:#F3EDCB"/>
				<stop offset="0.6029" style="stop-color:#E8BD23"/>
				<stop offset="0.6703" style="stop-color:#E4B822"/>
				<stop offset="0.7509" style="stop-color:#D7A91E"/>
				<stop offset="0.8383" style="stop-color:#C39117"/>
				<stop offset="0.9299" style="stop-color:#A6700E"/>
				<stop offset="1" style="stop-color:#8C5106"/>
			</linearGradient><linearGradient id="SVGID_32_" gradientUnits="userSpaceOnUse" x1="517.6791" y1="301.4182" x2="539.4758" y2="291.1812">
				<stop offset="0" style="stop-color:#F3EDCB"/>
				<stop offset="0.5897" style="stop-color:#E8BD23"/>
				<stop offset="1" style="stop-color:#8C5106"/>
			</linearGradient><linearGradient id="SVGID_33_" gradientUnits="userSpaceOnUse" x1="547.2607" y1="339.045" x2="554.7567" y2="291.6227">
				<stop offset="0.1444" style="stop-color:#F3EDCB"/>
				<stop offset="0.6029" style="stop-color:#E8BD23"/>
				<stop offset="0.6703" style="stop-color:#E4B822"/>
				<stop offset="0.7509" style="stop-color:#D7A91E"/>
				<stop offset="0.8383" style="stop-color:#C39117"/>
				<stop offset="0.9299" style="stop-color:#A6700E"/>
				<stop offset="1" style="stop-color:#8C5106"/>
			</linearGradient><linearGradient id="SVGID_34_" gradientUnits="userSpaceOnUse" x1="542.9606" y1="347.0243" x2="554.8053" y2="298.5249">
				<stop offset="0" style="stop-color:#F3EDCB"/>
				<stop offset="0.5897" style="stop-color:#E8BD23"/>
				<stop offset="1" style="stop-color:#8C5106"/>
			</linearGradient><linearGradient id="SVGID_37_" gradientUnits="userSpaceOnUse" x1="786.5327" y1="-948.4201" x2="798.9598" y2="-920.5374" gradientTransform="matrix(0.1489 -0.9889 0.9889 0.1489 1346.0911 1211.3508)">
					<stop offset="0" style="stop-color:#FFFFAA"/>
					<stop offset="0.5808" style="stop-color:#F0B21C"/>
					<stop offset="0.6314" style="stop-color:#ECAC1B"/>
					<stop offset="0.6996" style="stop-color:#E09B17"/>
					<stop offset="0.7777" style="stop-color:#CC7F12"/>
					<stop offset="0.8629" style="stop-color:#B0580A"/>
					<stop offset="0.9481" style="stop-color:#8F2900"/>
				</linearGradient><linearGradient id="SVGID_38_" gradientUnits="userSpaceOnUse" x1="786.1422" y1="-948.7972" x2="797.6331" y2="-923.0151" gradientTransform="matrix(0.1489 -0.9889 0.9889 0.1489 1346.0911 1211.3508)">
					<stop offset="0" style="stop-color:#FFFFAA"/>
					<stop offset="0.5808" style="stop-color:#F0B21C"/>
					<stop offset="0.6314" style="stop-color:#ECAC1B"/>
					<stop offset="0.6996" style="stop-color:#E09B17"/>
					<stop offset="0.7777" style="stop-color:#CC7F12"/>
					<stop offset="0.8629" style="stop-color:#B0580A"/>
					<stop offset="0.9481" style="stop-color:#8F2900"/>
				</linearGradient><linearGradient id="SVGID_39_" gradientUnits="userSpaceOnUse" x1="1956.7118" y1="-874.7421" x2="1969.1387" y2="-846.8599" gradientTransform="matrix(-0.935 -0.3548 0.3548 -0.935 2693.9995 189.1165)">
					<stop offset="0" style="stop-color:#FFFFAA"/>
					<stop offset="0.5808" style="stop-color:#F0B21C"/>
					<stop offset="0.6314" style="stop-color:#ECAC1B"/>
					<stop offset="0.6996" style="stop-color:#E09B17"/>
					<stop offset="0.7777" style="stop-color:#CC7F12"/>
					<stop offset="0.8629" style="stop-color:#B0580A"/>
					<stop offset="0.9481" style="stop-color:#8F2900"/>
				</linearGradient><linearGradient id="SVGID_40_" gradientUnits="userSpaceOnUse" x1="1956.3215" y1="-875.1195" x2="1967.8125" y2="-849.3371" gradientTransform="matrix(-0.935 -0.3548 0.3548 -0.935 2693.9995 189.1165)">
					<stop offset="0" style="stop-color:#FFFFAA"/>
					<stop offset="0.5808" style="stop-color:#F0B21C"/>
					<stop offset="0.6314" style="stop-color:#ECAC1B"/>
					<stop offset="0.6996" style="stop-color:#E09B17"/>
					<stop offset="0.7777" style="stop-color:#CC7F12"/>
					<stop offset="0.8629" style="stop-color:#B0580A"/>
					<stop offset="0.9481" style="stop-color:#8F2900"/>
				</linearGradient><linearGradient id="SVGID_41_" gradientUnits="userSpaceOnUse" x1="2215.6812" y1="168.9429" x2="2228.1091" y2="196.8279" gradientTransform="matrix(-0.6845 0.729 -0.729 -0.6845 2218.3186 -1206.1926)">
					<stop offset="0" style="stop-color:#FFFFAA"/>
					<stop offset="0.5808" style="stop-color:#F0B21C"/>
					<stop offset="0.6314" style="stop-color:#ECAC1B"/>
					<stop offset="0.6996" style="stop-color:#E09B17"/>
					<stop offset="0.7777" style="stop-color:#CC7F12"/>
					<stop offset="0.8629" style="stop-color:#B0580A"/>
					<stop offset="0.9481" style="stop-color:#8F2900"/>
				</linearGradient><linearGradient id="SVGID_42_" gradientUnits="userSpaceOnUse" x1="2215.2915" y1="168.5664" x2="2226.7827" y2="194.3495" gradientTransform="matrix(-0.6845 0.729 -0.729 -0.6845 2218.3186 -1206.1926)">
					<stop offset="0" style="stop-color:#FFFFAA"/>
					<stop offset="0.5808" style="stop-color:#F0B21C"/>
					<stop offset="0.6314" style="stop-color:#ECAC1B"/>
					<stop offset="0.6996" style="stop-color:#E09B17"/>
					<stop offset="0.7777" style="stop-color:#CC7F12"/>
					<stop offset="0.8629" style="stop-color:#B0580A"/>
					<stop offset="0.9481" style="stop-color:#8F2900"/>
				</linearGradient><linearGradient id="SVGID_43_" gradientUnits="userSpaceOnUse" x1="1429.6184" y1="830.778" x2="1442.0455" y2="858.6608" gradientTransform="matrix(0.3216 0.9469 -0.9469 0.3216 899.4136 -1355.8387)">
					<stop offset="0" style="stop-color:#FFFFAA"/>
					<stop offset="0.5808" style="stop-color:#F0B21C"/>
					<stop offset="0.6314" style="stop-color:#ECAC1B"/>
					<stop offset="0.6996" style="stop-color:#E09B17"/>
					<stop offset="0.7777" style="stop-color:#CC7F12"/>
					<stop offset="0.8629" style="stop-color:#B0580A"/>
					<stop offset="0.9481" style="stop-color:#8F2900"/>
				</linearGradient><linearGradient id="SVGID_44_" gradientUnits="userSpaceOnUse" x1="1429.2277" y1="830.3999" x2="1440.719" y2="856.1831" gradientTransform="matrix(0.3216 0.9469 -0.9469 0.3216 899.4136 -1355.8387)">
					<stop offset="0" style="stop-color:#FFFFAA"/>
					<stop offset="0.5808" style="stop-color:#F0B21C"/>
					<stop offset="0.6314" style="stop-color:#ECAC1B"/>
					<stop offset="0.6996" style="stop-color:#E09B17"/>
					<stop offset="0.7777" style="stop-color:#CC7F12"/>
					<stop offset="0.8629" style="stop-color:#B0580A"/>
					<stop offset="0.9481" style="stop-color:#8F2900"/>
				</linearGradient>



<g transform="matrix(1, 0, 0, 1, -55.65631973743439, -291.56324005126953)">
		<g>
			<linearGradient id="SVGID_49_" gradientUnits="userSpaceOnUse" x1="178.2348" y1="368.4791" x2="177.6634" y2="397.0353">
				<stop offset="0" style="stop-color:#2A1500"/>
				<stop offset="1.337788e-03" style="stop-color:#2A1500"/>
				<stop offset="0.1372" style="stop-color:#482A00"/>
				<stop offset="0.2144" style="stop-color:#533200"/>
				<stop offset="0.4883" style="stop-color:#603804"/>
				<stop offset="0.4943" style="stop-color:#603804"/>
				<stop offset="0.7393" style="stop-color:#553301"/>
				<stop offset="0.7499" style="stop-color:#533201"/>
				<stop offset="1" style="stop-color:#2A1500"/>
			</linearGradient>
			<path class="st52" d="M67,380.5c1.2-0.4,6.8,1.3,9.2,0.8c4.6-1,7.3-0.7,9.5-0.9c6.9-0.7,20.9,0.7,27.8,0.6&#10;&#9;&#9;&#9;&#9;c7.6-0.1,23-0.9,30.6-1.1c8.3-0.2,28.1,1,36.5,1c8.9,0,23.9,0.4,32.8,0.5c6.8,0,19.8-1.3,26.5-1.4c4.6-0.1,13.8-0.6,18.5-0.7&#10;&#9;&#9;&#9;&#9;c4-0.1,10.4-0.1,16.1-1.4c4.8-1,10.1-1.7,11.4-4.7c1.3-3-2.2-1.8-2.9-2.4c-1.1-0.8-1.7-4.7-0.5-5.4c1.4-0.8,3.6,0.1,6,2.4&#10;&#9;&#9;&#9;&#9;c2.4,2.3,2.4,2.3,1.4,5.6c-1,3.2-3.5,5.9-6.1,7.4c-2.6,1.5-2.9,3.1-7.1,3.8c-4.2,0.7-13.3,2.4-17.7,3c-9.1,1.2-18,3.2-34.4,2&#10;&#9;&#9;&#9;&#9;c-9.4-0.7-30.5,0.6-39.9,0.5c-7-0.1-19.6-1.3-26.6-1.3c-7-0.1-22.2-0.3-29.2-0.5c-7.2-0.1-22.3-0.4-29.5-0.8&#10;&#9;&#9;&#9;&#9;c-4.2-0.2-12.4,0.7-16.6,0.2c-1.3-0.2-4-0.7-5.3-1c-2-0.4-5.5-1.9-7.9-1.5c-2,0.4-3.5,0.7-3.5,0.7&#10;&#9;&#9;&#9;&#9;C65.1,384.8,65.8,380.9,67,380.5z" style="fill: url('#SVGID_49_');"/>
			<path class="st47" d="M185.9,390.2c-0.4,0-0.8,0-1.2,0c-3.5,0-8.4-0.4-13.2-0.7c-4.9-0.3-9.9-0.6-13.4-0.7&#10;&#9;&#9;&#9;&#9;c-6.8-0.1-21.2-0.3-29.2-0.5l-1.9,0c-7.8-0.1-21-0.4-27.6-0.7c-1.8-0.1-4.2,0-6.9,0.1c-2.1,0.1-4.2,0.2-6.2,0.2&#10;&#9;&#9;&#9;&#9;c-1.5,0-2.7-0.1-3.6-0.2c-0.9-0.1-2.5-0.4-3.8-0.7c-0.6-0.1-1.1-0.2-1.5-0.3c-0.6-0.1-1.4-0.3-2.2-0.6c-1.5-0.4-3.3-1-4.7-1&#10;&#9;&#9;&#9;&#9;c-0.3,0-0.6,0-0.8,0.1c-2,0.4-3.5,0.7-3.5,0.7l-0.1,0l-0.1-0.1c-0.6-0.6-0.7-2.3-0.3-3.6c0.1-0.6,0.6-1.9,1.4-2.1&#10;&#9;&#9;&#9;&#9;c0.6-0.2,1.9,0,3.6,0.3c1.5,0.3,3.2,0.5,4.6,0.5c0.4,0,0.8,0,1.1-0.1c3.2-0.7,5.5-0.7,7.4-0.8c0.8,0,1.5,0,2.2-0.1&#10;&#9;&#9;&#9;&#9;c1.3-0.1,3-0.2,5-0.2c3.8,0,8.2,0.2,12.5,0.4c3.7,0.2,7.3,0.4,9.9,0.4l0.4,0c4.2,0,10.8-0.3,17.2-0.6c5.1-0.2,10-0.4,13.4-0.5&#10;&#9;&#9;&#9;&#9;c4.7-0.1,13,0.2,21,0.5c6.1,0.2,11.8,0.5,15.4,0.5c4.4,0,10.4,0.1,16.2,0.2c5.9,0.1,12.1,0.2,16.6,0.2h0.2&#10;&#9;&#9;&#9;&#9;c3.7,0,9.3-0.4,14.7-0.7c4.5-0.3,8.7-0.6,11.7-0.7c2.4-0.1,6.1-0.2,9.6-0.4c3.4-0.2,6.6-0.3,8.8-0.4l1.3,0&#10;&#9;&#9;&#9;&#9;c4.1-0.1,9.6-0.2,14.7-1.3c0.7-0.1,1.3-0.3,2-0.4c4-0.8,8.2-1.7,9.3-4.1c0.3-0.6,0.3-1.1,0.2-1.4c-0.2-0.4-1-0.4-1.7-0.5&#10;&#9;&#9;&#9;&#9;c-0.6,0-1.1-0.1-1.4-0.3c-0.8-0.7-1.3-2.7-1.2-4.2c0.1-0.8,0.3-1.4,0.8-1.7c1.5-0.9,3.8,0,6.3,2.5c2.5,2.4,2.5,2.5,1.5,5.8&#10;&#9;&#9;&#9;&#9;c-1.1,3.6-3.9,6.2-6.2,7.5c-0.8,0.5-1.4,0.9-2,1.4c-1.2,1-2.3,1.9-5.2,2.4c-1.3,0.2-2.9,0.5-4.8,0.8c-4.4,0.8-9.8,1.7-12.9,2.1&#10;&#9;&#9;&#9;&#9;c-1.6,0.2-3.1,0.4-4.7,0.7c-5.8,0.8-11.9,1.7-20.3,1.7c-3,0-6.1-0.1-9.4-0.3c-1.9-0.1-4.2-0.2-7.3-0.2c-5.3,0-11.5,0.2-17.6,0.4&#10;&#9;&#9;&#9;&#9;C194.5,390.1,189.5,390.2,185.9,390.2z M97.9,387.1c0.5,0,1,0,1.5,0c6.6,0.3,19.8,0.6,27.6,0.7l1.9,0c8,0.2,22.4,0.4,29.2,0.5&#10;&#9;&#9;&#9;&#9;c3.5,0,8.6,0.4,13.4,0.7c4.8,0.3,9.7,0.6,13.2,0.7c3.7,0,9.2-0.1,15-0.3c6-0.2,12.3-0.4,17.6-0.4c3.1,0,5.5,0.1,7.3,0.2&#10;&#9;&#9;&#9;&#9;c3.2,0.2,6.4,0.3,9.3,0.3c8.4,0,14.4-0.9,20.3-1.7c1.6-0.2,3.1-0.5,4.7-0.7c3.1-0.4,8.6-1.4,12.9-2.1c1.9-0.3,3.5-0.6,4.8-0.8&#10;&#9;&#9;&#9;&#9;c2.8-0.5,3.8-1.3,5-2.3c0.6-0.5,1.2-1,2.1-1.5c2.2-1.2,4.9-3.8,6-7.2c0.9-3.1,0.9-3.1-1.4-5.3c-2.3-2.2-4.4-3.1-5.6-2.4&#10;&#9;&#9;&#9;&#9;c-0.3,0.2-0.4,0.6-0.5,1.2c-0.1,1.4,0.4,3.2,1,3.7c0.2,0.1,0.6,0.1,1.1,0.2c0.8,0,1.7,0.1,2.1,0.7c0.3,0.4,0.2,1-0.1,1.9&#10;&#9;&#9;&#9;&#9;c-1.2,2.7-5.3,3.5-9.7,4.4c-0.7,0.1-1.3,0.3-2,0.4c-5.2,1.1-10.8,1.3-14.8,1.3l-1.3,0c-2.2,0.1-5.6,0.2-8.8,0.4&#10;&#9;&#9;&#9;&#9;c-3.6,0.2-7.2,0.3-9.6,0.4c-3,0.1-7.2,0.4-11.6,0.7c-5.4,0.4-11,0.8-14.7,0.8h-0.2c-4.5,0-10.6-0.1-16.6-0.2&#10;&#9;&#9;&#9;&#9;c-5.8-0.1-11.8-0.2-16.2-0.2c-3.6,0-9.4-0.2-15.5-0.5c-8-0.3-16.3-0.6-21-0.5c-3.4,0.1-8.2,0.3-13.3,0.5&#10;&#9;&#9;&#9;&#9;c-6.4,0.3-13,0.5-17.3,0.6l-0.4,0c-2.7,0-6.2-0.2-10-0.4c-4.3-0.2-8.7-0.4-12.5-0.4c-2,0-3.6,0.1-4.9,0.2&#10;&#9;&#9;&#9;&#9;c-0.7,0.1-1.4,0.1-2.2,0.1c-1.8,0.1-4.1,0.1-7.3,0.8c-1.3,0.3-3.8-0.1-5.9-0.4c-1.2-0.2-2.3-0.4-2.9-0.4c-0.2,0-0.3,0-0.4,0&#10;&#9;&#9;&#9;&#9;c-0.4,0.1-0.8,0.8-1,1.7c-0.3,1.2-0.3,2.5,0.1,3c0.4-0.1,1.7-0.3,3.4-0.6c0.3-0.1,0.6-0.1,0.9-0.1c1.5,0,3.3,0.5,4.9,1&#10;&#9;&#9;&#9;&#9;c0.8,0.2,1.5,0.4,2.1,0.6c0.4,0.1,0.9,0.2,1.5,0.3c1.3,0.3,2.9,0.6,3.8,0.7c0.9,0.1,2.1,0.2,3.6,0.2c1.9,0,4.1-0.1,6.1-0.2&#10;&#9;&#9;&#9;&#9;C94.5,387.2,96.3,387.1,97.9,387.1z" style="fill: rgb(53, 17, 0);"/>
		</g>
		<path class="st47" d="M65.9,383c-0.2,0-0.1-0.4,0.1-0.3c6.4,0.9,12.9,0.8,19.4,0.3c9.2-0.7,18.3-0.6,27.5-0.3&#10;&#9;&#9;&#9;c9.1,0.4,18.2,0.4,27.3,0.2c9.2-0.2,18.3-0.5,27.5,0.1c4.6,0.3,9.2,0.6,13.8,0.6c4.5,0,9.1-0.1,13.6,0c4.4,0.2,8.8,0.7,13.3,0.8&#10;&#9;&#9;&#9;c4.4,0.2,8.8,0.2,13.2-0.1c4.5-0.3,8.9-0.8,13.4-1.1c4.5-0.3,9.1-0.5,13.6-0.9c4.6-0.4,9.1-0.8,13.7-1.1c4.6-0.4,9.2-0.6,13.7-1.3&#10;&#9;&#9;&#9;c2-0.3,4-0.8,5.9-1.5c1.6-0.6,3.7-1.3,4.9-2.5c1.1-1.1,2.2-2.8,1.7-4.5c-0.3-0.9-0.9-1.7-1.7-2.1c-0.9-0.5-1.8-0.4-2.7-0.1&#10;&#9;&#9;&#9;c1,0.1,2,0.6,2.8,1.4c0.6,0.5,1.1,1.3,1.1,2.1c-0.1,1.9-2.2,3-3.7,3.6c-4.6,2.1-9.8,3.1-14.8,3.7c-8.7,1.2-17.5,1-26.2,1.5&#10;&#9;&#9;&#9;c-4.5,0.2-8.9,0.4-13.4,0.7c-4.3,0.3-8.6,0.9-12.9,1.1c-4.3,0.2-8.6,0.2-12.8-0.3c-4.4-0.5-8.7-0.8-13.1-0.7&#10;&#9;&#9;&#9;c-4.5,0.1-8.9,0.4-13.4,0.2c-4.3-0.2-8.6-0.7-13-1c-4.3-0.3-8.7-0.5-13-0.1c-4.4,0.4-8.8,0.4-13.2,0.4c-4.5-0.1-8.9,0.2-13.4,0.3&#10;&#9;&#9;&#9;c-4.5,0.1-9,0.1-13.5,0c-9-0.1-18.1-0.9-27.1-0.3c-4.2,0.3-8.3,1-12.5,0.6c-1.2-0.1-2.5-0.2-3.7-0.5c-0.6-0.1-1.5-0.3-1.8-0.9&#10;&#9;&#9;&#9;c-0.1-0.2,0.2-0.4,0.4-0.2c0.5,0.9,3.2,0.9,4.1,1c1.7,0.2,3.4,0.3,5.2,0.2c4.4-0.2,8.8-0.9,13.2-0.9c9.2-0.1,18.4,0.5,27.6,0.6&#10;&#9;&#9;&#9;c4.5,0,9-0.1,13.5-0.3c4.4-0.2,8.9,0,13.3,0c4.4,0,8.7-0.7,13-0.7c4.4,0,8.7,0.4,13.1,0.8c4.4,0.4,8.7,0.7,13.1,0.6&#10;&#9;&#9;&#9;c4.5-0.1,8.9-0.4,13.4-0.3c4.3,0.1,8.5,0.9,12.8,1c4.3,0.1,8.5,0,12.8-0.4c8.8-0.9,17.6-1.4,26.5-1.7c7.8-0.3,15.6-0.2,23.3-1.6&#10;&#9;&#9;&#9;c3.7-0.6,7.6-1.4,11.1-2.9c1.4-0.6,3.5-1.4,4.2-2.8c0.3-0.7,0.2-1.4-0.3-2c-1.1-1.3-2.7-2.1-4.4-1.4c-0.3,0.1-0.5-0.3-0.2-0.5&#10;&#9;&#9;&#9;c0-0.1,0-0.2,0.1-0.3c1.8-0.8,3.7-1.4,5.3,0.1c1,0.9,1.6,2.2,1.4,3.6c-0.7,3.9-5.1,5.5-8.5,6.5c-3.9,1.2-7.9,1.4-11.9,1.8&#10;&#9;&#9;&#9;c-4.6,0.4-9.1,0.7-13.7,1.1c-9.1,0.7-18.2,1.2-27.3,2c-8.8,0.8-17.5,0.9-26.4,0.2c-9.1-0.7-18.2-0.2-27.3-0.7&#10;&#9;&#9;&#9;c-4.6-0.2-9.2-0.6-13.8-0.7c-4.6-0.1-9.2,0-13.8,0.1c-9.1,0.2-18.2,0.4-27.4,0.1c-9.1-0.3-18.3-0.8-27.4-0.4&#10;&#9;&#9;&#9;C83.1,383.4,74.6,384.3,65.9,383z M288.2,367.7c-1.6-1.9-4.1-2-6.3-1.8c-0.4,0-0.4,0.6,0,0.6c2-0.2,4.1-0.1,5.7,1.3&#10;&#9;&#9;&#9;c1.3,1.2,1.8,3.1,1.7,4.8c0,3.9-3.4,6-6.8,7c-8,2.4-16.6,2.6-24.9,3.6c-9.1,1.1-18.3,1.6-27.4,2.1c-9.1,0.4-18.2,0.6-27.3,0.4&#10;&#9;&#9;&#9;c-18.1-0.5-36.3-1-54.4-1.3c-9.1-0.2-18.1-0.1-27.2,0c-4.5,0-9.1,0-13.6-0.3c-4.5-0.3-9-0.6-13.5-0.6c-9.4,0-18.8,1.7-28.2,1&#10;&#9;&#9;&#9;c-0.2,0-0.2,0.3,0,0.4c9.1,0.9,18.1-0.7,27.1-0.8c4.5-0.1,9,0.2,13.5,0.5c4.5,0.3,9.1,0.4,13.6,0.4c18.1-0.1,36.2,0.2,54.4,0.4&#10;&#9;&#9;&#9;c9.1,0.1,18.2,0.6,27.3,0.9c9.1,0.2,18.1,0.1,27.2-0.3c9.1-0.4,18.3-0.9,27.4-2c8.3-0.9,16.6-1.4,24.7-3.4c4.1-1,8.2-2.9,8.6-7.6&#10;&#9;&#9;&#9;C290.1,371.1,289.4,369.1,288.2,367.7z M284.1,380.2c-7.8,3.7-17,3.6-25.5,4.5c-9,0.9-18.1,1.9-27.1,2.2&#10;&#9;&#9;&#9;c-9.1,0.3-18.2-0.3-27.3-0.3c-4.5,0-9.1,0.3-13.6,0.4c-4.5,0.2-9,0.1-13.5-0.1c-4.1-0.2-8.1-0.2-12.2-0.3c-4.2-0.1-8.4-0.7-12.6-1&#10;&#9;&#9;&#9;c-4.3-0.2-8.6,0-12.8,0.1c-4.3,0.1-8.7-0.2-13-0.3c-8.6-0.3-17.2-0.4-25.8-0.4c-4.4,0-8.7,0-13.1,0.2c-4.2,0.2-8.5,0.4-12.7,0.2&#10;&#9;&#9;&#9;c-0.2,0-0.2,0.3,0,0.3c4.4,0.3,8.8,0.1,13.2-0.1c4.6-0.2,9.1-0.2,13.7-0.1c9.1,0.1,18.3,0.2,27.4,0.5c4.5,0.2,9,0.3,13.5,0.1&#10;&#9;&#9;&#9;c4.4-0.1,8.9-0.2,13.3,0.3c4.4,0.5,8.8,0.7,13.2,0.7c4.4,0.1,8.9,0.3,13.3,0.4c8.7,0.2,17.4-0.6,26.1-0.4&#10;&#9;&#9;&#9;c8.9,0.2,17.8,0.6,26.7,0.1c8.6-0.5,17.3-1.4,25.9-2.3c7.7-0.7,16.1-0.8,23.1-4.4C284.7,380.5,284.5,380,284.1,380.2z&#10;&#9;&#9;&#9; M281.1,382.1c-1.3,0.8-3,0.9-4.5,1.3c-2.1,0.6-4.2,1-6.4,1.3c-4.3,0.7-8.7,0.9-13.1,1.2c-8.9,0.7-17.7,2.6-26.7,2.5&#10;&#9;&#9;&#9;c-8.9-0.1-17.8-1.1-26.7-1c-9,0.1-17.9,0.4-26.9,0.5c-3.7,0-7.5-0.2-11.2-0.4c-4-0.2-8-0.3-12-0.4c-4.1-0.2-8.1-0.4-12.2-0.6&#10;&#9;&#9;&#9;c-4-0.2-8,0-12.1,0c-4,0.1-7.9-0.4-11.9-0.7c-3.9-0.2-7.8-0.1-11.7,0c-7.9,0.4-15.8,1.4-23.8,1.5c-0.2,0-0.2,0.3,0,0.3&#10;&#9;&#9;&#9;c9,0,18-1.2,27-1.5c4.5-0.1,8.9,0.1,13.4,0.6c4.5,0.5,9.1,0.2,13.6,0.1c4.6-0.1,9.2,0.3,13.8,0.5c4.6,0.2,9.2,0.3,13.7,0.5&#10;&#9;&#9;&#9;c4.4,0.2,8.9,0.5,13.3,0.5c4.5,0,9-0.2,13.5-0.3c7.9,0,15.7-0.4,23.6,0c8,0.4,16,1.3,24.1,0.6c7.9-0.7,15.8-2,23.7-2.6&#10;&#9;&#9;&#9;c3.6-0.3,7.2-0.6,10.7-1.2c1.8-0.3,3.4-0.8,5.2-1.2c1.3-0.3,2.7-0.5,3.8-1.2C281.6,382.4,281.4,382,281.1,382.1z" style="fill: rgb(53, 17, 0);"/>
	</g><g transform="matrix(1, 0, 0, 1, -55.65631973743439, -291.56324005126953)">
			
				<linearGradient id="SVGID_50_" gradientUnits="userSpaceOnUse" x1="123.7848" y1="365.6115" x2="123.2134" y2="394.17" gradientTransform="matrix(-0.9961 -8.870000e-02 -8.870000e-02 0.9961 334.4103 15.2917)">
				<stop offset="0" style="stop-color:#2A1500"/>
				<stop offset="1.337788e-03" style="stop-color:#2A1500"/>
				<stop offset="0.1372" style="stop-color:#482A00"/>
				<stop offset="0.2144" style="stop-color:#533200"/>
				<stop offset="0.4883" style="stop-color:#603804"/>
				<stop offset="0.4943" style="stop-color:#603804"/>
				<stop offset="0.7393" style="stop-color:#553301"/>
				<stop offset="0.7499" style="stop-color:#533201"/>
				<stop offset="1" style="stop-color:#2A1500"/>
			</linearGradient>
			<path class="st53" d="M288.4,390.3c-1.2-0.5-6.8,0.7-9.2-0.1c-4.5-1.4-7.2-1.3-9.4-1.8c-6.8-1.3-20.9-1.2-27.8-1.9&#10;&#9;&#9;&#9;&#9;c-7.6-0.7-22.8-2.9-30.4-3.8c-8.3-0.9-28.1-1.5-36.4-2.2c-8.9-0.8-23.8-1.7-32.7-2.4c-6.7-0.6-19.6-3-26.3-3.8&#10;&#9;&#9;&#9;&#9;c-4.6-0.5-13.7-1.9-18.3-2.4c-4-0.5-10.3-1-15.9-2.8c-4.7-1.5-9.9-2.6-11-5.7c-1-3.1,2.4-1.6,3.2-2.2c1.1-0.7,2.1-4.5,1-5.3&#10;&#9;&#9;&#9;&#9;c-1.3-0.9-3.6-0.2-6.2,1.9c-2.6,2.1-2.6,2.1-1.9,5.4c0.7,3.3,3,6.2,5.4,7.9c2.4,1.7,2.6,3.3,6.8,4.4c4.2,1.1,13,3.6,17.4,4.5&#10;&#9;&#9;&#9;&#9;c8.9,2,17.6,4.8,34.1,5.1c9.5,0.2,30.3,3.3,39.7,4c7,0.5,19.6,0.5,26.6,1c7,0.6,22.1,1.6,29.1,2.1c7.2,0.5,22.2,1.6,29.5,1.9&#10;&#9;&#9;&#9;&#9;c4.2,0.2,12.3,1.8,16.6,1.6c1.3-0.1,4-0.4,5.4-0.5c2-0.2,5.7-1.4,7.9-0.7c2,0.5,3.5,1,3.5,1C289.9,394.8,289.6,390.8,288.4,390.3&#10;&#9;&#9;&#9;&#9;z" style="fill: url('#SVGID_50_');"/>
			<path class="st47" d="M155.4,388c-6-0.7-12.2-1.5-17.5-1.9c-3-0.3-5.4-0.4-7.3-0.5c-3.2-0.1-6.4-0.2-9.4-0.5&#10;&#9;&#9;&#9;&#9;c-8.4-0.7-14.4-2.2-20.1-3.5c-1.6-0.4-3.1-0.7-4.6-1.1c-3.1-0.7-8.4-2.1-12.7-3.3c-1.8-0.5-3.5-0.9-4.7-1.3&#10;&#9;&#9;&#9;&#9;c-2.9-0.7-3.9-1.8-5-2.8c-0.5-0.5-1.1-1.1-1.8-1.6c-2.2-1.5-4.8-4.4-5.5-8.1c-0.7-3.4-0.7-3.5,2-5.7c2.7-2.2,5.1-2.9,6.5-1.9&#10;&#9;&#9;&#9;&#9;c0.4,0.3,0.6,0.9,0.6,1.7c0,1.4-0.7,3.5-1.6,4c-0.3,0.2-0.8,0.2-1.4,0.2c-0.7,0-1.4-0.1-1.7,0.3c-0.2,0.2-0.2,0.7,0.1,1.4&#10;&#9;&#9;&#9;&#9;c0.8,2.5,4.9,3.7,8.9,4.9c0.6,0.2,1.3,0.4,1.9,0.6c5,1.6,10.5,2.2,14.6,2.6l1.3,0.1c2.2,0.3,5.4,0.7,8.8,1.1&#10;&#9;&#9;&#9;&#9;c3.5,0.5,7.2,1,9.5,1.2c3,0.3,7.2,1,11.6,1.7c5.3,0.8,10.8,1.7,14.5,2l0.2,0c4.5,0.4,10.6,0.8,16.5,1.2&#10;&#9;&#9;&#9;&#9;c5.8,0.4,11.8,0.8,16.2,1.2c3.6,0.3,9.3,0.6,15.4,0.9c8,0.4,16.3,0.8,21,1.3c3.4,0.4,8.2,1,13.3,1.7c6.3,0.8,12.9,1.7,17.1,2.1&#10;&#9;&#9;&#9;&#9;l0.4,0c2.6,0.2,6.2,0.4,9.9,0.5c4.3,0.2,8.7,0.3,12.5,0.7c2,0.2,3.6,0.4,4.9,0.6c0.7,0.1,1.4,0.2,2.2,0.3&#10;&#9;&#9;&#9;&#9;c1.8,0.2,4.1,0.5,7.3,1.5c0.3,0.1,0.7,0.2,1.1,0.2c1.3,0.1,3.1,0,4.6-0.1c1.7-0.1,3-0.2,3.6,0c0.8,0.3,1.1,1.7,1.2,2.2&#10;&#9;&#9;&#9;&#9;c0.2,1.3,0.1,3-0.6,3.6l-0.1,0.1l-0.1,0c0,0-1.5-0.4-3.4-1c-0.3-0.1-0.5-0.1-0.8-0.1c-1.4-0.1-3.2,0.2-4.8,0.5&#10;&#9;&#9;&#9;&#9;c-0.8,0.2-1.6,0.3-2.2,0.4c-0.4,0-0.9,0.1-1.5,0.2c-1.3,0.1-2.9,0.3-3.9,0.4c-0.9,0-2.1,0-3.6-0.1c-1.9-0.2-4.1-0.5-6.1-0.7&#10;&#9;&#9;&#9;&#9;c-2.6-0.3-5-0.7-6.8-0.7c-6.7-0.3-19.8-1.2-27.6-1.7l-1.9-0.1c-8-0.6-22.4-1.6-29.1-2.1c-3.5-0.3-8.5-0.4-13.4-0.5&#10;&#9;&#9;&#9;&#9;c-4.8-0.1-9.7-0.2-13.2-0.5c-0.4,0-0.8-0.1-1.2-0.1C165.5,389.2,160.6,388.6,155.4,388z M262.4,394.8c2.1,0.3,4.2,0.6,6.1,0.7&#10;&#9;&#9;&#9;&#9;c1.5,0.1,2.6,0.2,3.6,0.1c0.9,0,2.5-0.2,3.8-0.3c0.6-0.1,1.1-0.1,1.5-0.2c0.6-0.1,1.3-0.2,2.2-0.4c1.6-0.3,3.4-0.7,5-0.5&#10;&#9;&#9;&#9;&#9;c0.3,0,0.7,0.1,0.9,0.2c1.6,0.4,2.9,0.8,3.3,0.9c0.4-0.5,0.5-1.8,0.3-3c-0.2-1-0.5-1.7-0.9-1.8c-0.1,0-0.2-0.1-0.4-0.1&#10;&#9;&#9;&#9;&#9;c-0.6-0.1-1.8,0-2.9,0.1c-2.1,0.2-4.6,0.3-5.9-0.1c-3.1-0.9-5.4-1.2-7.2-1.4c-0.8-0.1-1.5-0.2-2.2-0.3c-1.3-0.2-2.9-0.5-4.9-0.6&#10;&#9;&#9;&#9;&#9;c-3.8-0.3-8.2-0.5-12.5-0.7c-3.8-0.1-7.3-0.3-9.9-0.5l-0.4,0c-4.2-0.4-10.8-1.3-17.1-2.1c-5.1-0.7-9.9-1.3-13.3-1.7&#10;&#9;&#9;&#9;&#9;c-4.7-0.5-13-0.9-20.9-1.3c-6.1-0.3-11.8-0.6-15.4-0.9c-4.4-0.4-10.4-0.8-16.2-1.2c-5.9-0.4-12-0.9-16.5-1.2l-0.2,0&#10;&#9;&#9;&#9;&#9;c-3.7-0.3-9.2-1.2-14.6-2.1c-4.4-0.7-8.6-1.4-11.5-1.7c-2.4-0.3-6-0.8-9.6-1.2c-3.2-0.4-6.6-0.9-8.8-1.1l-1.3-0.1&#10;&#9;&#9;&#9;&#9;c-4.1-0.4-9.6-1.1-14.7-2.7c-0.6-0.2-1.3-0.4-1.9-0.6c-4.3-1.3-8.3-2.5-9.2-5.3c-0.3-0.9-0.3-1.5,0-1.9c0.4-0.6,1.4-0.6,2.2-0.5&#10;&#9;&#9;&#9;&#9;c0.4,0,0.9,0,1.1-0.1c0.7-0.4,1.3-2.2,1.4-3.6c0-0.6-0.1-1.1-0.4-1.3c-1.2-0.8-3.4-0.1-5.8,1.9c-2.5,2-2.5,2-1.8,5.1&#10;&#9;&#9;&#9;&#9;c0.7,3.5,3.2,6.3,5.3,7.7c0.8,0.6,1.4,1.1,1.9,1.7c1.1,1.1,2,2,4.7,2.7c1.2,0.3,2.9,0.8,4.7,1.3c4.3,1.2,9.6,2.6,12.7,3.3&#10;&#9;&#9;&#9;&#9;c1.5,0.3,3,0.7,4.6,1.1c5.7,1.4,11.7,2.8,20,3.5c3,0.3,6.1,0.4,9.3,0.5c1.9,0,4.3,0.2,7.3,0.5c5.3,0.5,11.5,1.2,17.5,1.9&#10;&#9;&#9;&#9;&#9;c5.8,0.7,11.3,1.3,14.9,1.6c3.4,0.3,8.4,0.4,13.2,0.5c4.9,0.1,9.9,0.2,13.4,0.5c6.7,0.5,21.1,1.6,29.1,2.1l1.9,0.1&#10;&#9;&#9;&#9;&#9;c7.8,0.5,20.9,1.5,27.6,1.7c0.4,0,0.9,0.1,1.5,0.1C258.6,394.3,260.5,394.5,262.4,394.8z" style="fill: rgb(53, 17, 0);"/>
		</g><path class="st47" d="M263.4,390.7c-9-1.2-18.2-1.5-27.3-2c-9.1-0.5-18.2-1.6-27.3-2.5c-4.6-0.5-9.1-1.1-13.7-1.3&#10;&#9;&#9;&#9;c-4.6-0.3-9.2-0.3-13.8-0.5c-9.1-0.3-18.1-1.6-27.2-1.7c-8.9-0.1-17.5-1-26.2-2.6c-9-1.6-18-2.8-27-4.4c-4.5-0.8-9-1.5-13.5-2.3&#10;&#9;&#9;&#9;c-4-0.7-7.9-1.3-11.7-2.8c-3.3-1.3-7.5-3.2-7.9-7.2c-0.1-1.4,0.6-2.7,1.7-3.5c1.7-1.3,3.6-0.6,5.3,0.4c0.1,0.1,0.2,0.2,0.1,0.3&#10;&#9;&#9;&#9;c0.2,0.2,0,0.7-0.3,0.5c-1.6-0.9-3.2-0.2-4.5,1c-0.6,0.5-0.8,1.2-0.5,2c0.6,1.5,2.6,2.5,4,3.2c3.4,1.7,7.1,2.9,10.8,3.8&#10;&#9;&#9;&#9;c7.5,2,15.4,2.6,23.1,3.6c8.8,1.1,17.5,2.4,26.2,4.1c4.2,0.8,8.4,1.3,12.7,1.6c4.3,0.2,8.6-0.1,12.8,0.1c4.5,0.2,8.9,1,13.3,1.4&#10;&#9;&#9;&#9;c4.3,0.5,8.7,0.5,13.1,0.6c4.4,0,8.7,0,13.1,0.4c4.3,0.4,8.6,1.4,12.9,1.8c4.4,0.4,8.9,0.6,13.3,1.2c4.5,0.6,8.9,1.1,13.4,1.5&#10;&#9;&#9;&#9;c9.2,0.8,18.4,1,27.6,1.9c4.4,0.4,8.7,1.5,13.1,2.1c1.7,0.2,3.4,0.3,5.2,0.3c0.9,0,3.5,0.3,4.1-0.6c0.2-0.2,0.5,0,0.3,0.2&#10;&#9;&#9;&#9;c-0.4,0.6-1.3,0.6-1.9,0.7c-1.2,0.2-2.5,0.2-3.7,0.2c-4.2,0-8.2-1.1-12.3-1.7c-8.9-1.4-18-1.4-27-2.1c-4.5-0.3-9-0.7-13.5-1.2&#10;&#9;&#9;&#9;c-4.5-0.5-8.9-1.1-13.4-1.5c-4.4-0.3-8.8-0.7-13.1-1.6c-4.2-0.8-8.6-1-12.9-1c-4.3-0.1-8.7,0-13-0.2c-4.5-0.2-8.9-0.9-13.3-1.4&#10;&#9;&#9;&#9;c-4.4-0.5-8.7-0.5-13.1-0.5c-4.3,0.1-8.6-0.3-12.8-0.9c-4.3-0.6-8.5-1.6-12.7-2.2c-4.4-0.7-8.8-1.3-13.2-1.9&#10;&#9;&#9;&#9;c-8.7-1.2-17.5-1.8-26-3.8c-4.9-1.1-10-2.5-14.4-5c-1.4-0.8-3.4-2.1-3.4-3.9c0-0.8,0.7-1.5,1.3-2c0.9-0.7,1.9-1.1,2.9-1.1&#10;&#9;&#9;&#9;c-0.8-0.3-1.7-0.5-2.7-0.1c-0.9,0.3-1.6,1.1-1.9,1.9c-0.6,1.6,0.3,3.4,1.3,4.6c1.2,1.3,3.2,2.2,4.7,2.9c1.8,0.9,3.8,1.5,5.7,2&#10;&#9;&#9;&#9;c4.4,1.1,9.1,1.7,13.6,2.5c4.5,0.8,9,1.5,13.5,2.3c4.5,0.8,9,1.4,13.5,2.1c4.4,0.7,8.8,1.6,13.3,2.3c4.4,0.7,8.8,1,13.2,1.3&#10;&#9;&#9;&#9;c4.4,0.2,8.9,0.1,13.3,0.3c4.5,0.2,9.1,0.8,13.6,1.2c4.6,0.4,9.2,0.5,13.8,0.6c9.2,0.3,18.3,1.4,27.4,2.3c9,1,18.1,1.7,27.2,2.2&#10;&#9;&#9;&#9;c9.2,0.5,18.3,1.2,27.3,2.7c6.4,1,12.9,1.7,19.3,1.4c0.2,0,0.3,0.3,0.1,0.3C280.5,393.5,272.1,391.8,263.4,390.7z M67.1,363.1&#10;&#9;&#9;&#9;c0.1,4.7,3.9,7,7.9,8.3c7.9,2.7,16.1,3.9,24.3,5.5c9,1.8,18.1,3.2,27.1,4.4c9,1.2,18,2.1,27.1,2.7c9.1,0.6,18.2,0.9,27.2,1.6&#10;&#9;&#9;&#9;c18.1,1.3,36.1,2.7,54.2,4.4c4.5,0.4,9,0.7,13.6,0.8c4.5,0.1,9,0.2,13.5,0.7c9,0.9,17.8,3.3,27,3.2c0.2,0,0.3-0.3,0-0.4&#10;&#9;&#9;&#9;c-9.5-0.1-18.6-2.7-28-3.5c-4.5-0.4-9-0.5-13.5-0.6c-4.5-0.1-9.1-0.5-13.6-0.9c-9-0.9-18-1.8-27.1-2.4&#10;&#9;&#9;&#9;c-18.1-1.3-36.2-2.5-54.3-3.5c-9.1-0.5-18.1-1.6-27.1-2.8c-9.1-1.2-18.2-2.6-27.1-4.5c-8.2-1.7-16.6-2.6-24.4-5.8&#10;&#9;&#9;&#9;c-3.2-1.3-6.4-3.6-6.1-7.5c0.1-1.7,0.8-3.5,2.2-4.6c1.7-1.3,3.7-1.2,5.8-0.8c0.4,0.1,0.4-0.5,0.1-0.6c-2.2-0.4-4.7-0.5-6.4,1.2&#10;&#9;&#9;&#9;C67.9,359.3,67.1,361.2,67.1,363.1z M71.8,371.2c6.7,4.2,15.1,5,22.7,6.4c8.5,1.6,17,3.3,25.6,4.6c8.8,1.3,17.7,1.6,26.6,2.3&#10;&#9;&#9;&#9;c8.7,0.6,17.3,2.2,26,2.7c4.4,0.3,8.8,0.5,13.3,0.8c4.4,0.3,8.8,0.6,13.2,0.4c4.4-0.1,8.9,0.4,13.3,0.9c4.5,0.5,9,0.8,13.5,1.1&#10;&#9;&#9;&#9;c9.1,0.4,18.2,1.1,27.4,1.9c4.5,0.4,9.1,0.8,13.6,1.3c4.4,0.5,8.7,1.1,13.2,1.3c0.2,0,0.2-0.3,0-0.3c-4.2-0.2-8.4-0.8-12.6-1.4&#10;&#9;&#9;&#9;c-4.3-0.6-8.7-1-13-1.4c-8.6-0.7-17.1-1.5-25.7-1.9c-4.3-0.2-8.7-0.4-13-0.8c-4.2-0.5-8.5-1.1-12.8-1.2c-4.2-0.1-8.4,0.1-12.7-0.2&#10;&#9;&#9;&#9;c-4-0.2-8.1-0.6-12.1-0.8c-4.5-0.2-9-0.5-13.5-1.1c-4.5-0.6-9-1.3-13.5-1.7c-9.1-0.8-18.2-1-27.2-2.1c-9-1.1-17.9-2.9-26.8-4.6&#10;&#9;&#9;&#9;c-8.3-1.6-17.5-2.4-25-6.8C71.8,370.6,71.5,371,71.8,371.2z M74.7,373.4c1.1,0.8,2.4,1.1,3.7,1.6c1.7,0.6,3.3,1.2,5,1.7&#10;&#9;&#9;&#9;c3.5,0.9,7,1.6,10.5,2.2c7.9,1.3,15.6,3.3,23.4,4.7c7.9,1.4,16,1.2,24,1.5c7.9,0.3,15.6,1.4,23.5,2.1c4.5,0.4,8.9,1.1,13.4,1.5&#10;&#9;&#9;&#9;c4.4,0.4,8.9,0.5,13.3,0.7c4.6,0.2,9.1,0.5,13.7,0.7c4.6,0.2,9.2,0.2,13.8,0.7c4.5,0.5,9,1.2,13.6,1.1c4.5-0.1,8.9,0.1,13.4,0.6&#10;&#9;&#9;&#9;c8.9,1.1,17.8,3.1,26.7,3.8c0.2,0,0.2-0.3,0-0.3c-7.9-0.8-15.7-2.5-23.6-3.6c-3.9-0.5-7.8-1-11.7-1.1c-4-0.1-7.9,0.1-11.9-0.4&#10;&#9;&#9;&#9;c-4-0.4-8-0.9-12-1.1c-4.1-0.2-8.1-0.3-12.2-0.5c-4-0.2-8-0.5-12-0.6c-3.7-0.2-7.5-0.3-11.2-0.6c-8.9-0.8-17.8-2-26.7-2.9&#10;&#9;&#9;&#9;c-8.9-0.9-17.8-0.6-26.7-1.3c-9-0.7-17.5-3.4-26.3-4.9c-4.3-0.7-8.7-1.3-12.9-2.4c-2.1-0.5-4.2-1.1-6.3-1.9&#10;&#9;&#9;&#9;c-1.4-0.6-3.1-0.8-4.3-1.7C74.7,372.8,74.4,373.2,74.7,373.4z" style="fill: rgb(53, 17, 0);" transform="matrix(1, 0, 0, 1, -55.65631973743439, -291.56324005126953)"/><g transform="matrix(1, 0, 0, 1, -55.65631973743439, -291.56324005126953)">
			
				<linearGradient id="SVGID_51_" gradientUnits="userSpaceOnUse" x1="99.6772" y1="356.1099" x2="99.1058" y2="384.6684" gradientTransform="matrix(-0.9961 -8.870000e-02 -8.870000e-02 0.9961 334.4103 15.2917)">
				<stop offset="0" style="stop-color:#2A1500"/>
				<stop offset="1.337788e-03" style="stop-color:#2A1500"/>
				<stop offset="0.1372" style="stop-color:#482A00"/>
				<stop offset="0.2144" style="stop-color:#533200"/>
				<stop offset="0.4883" style="stop-color:#603804"/>
				<stop offset="0.4943" style="stop-color:#603804"/>
				<stop offset="0.7393" style="stop-color:#553301"/>
				<stop offset="0.7499" style="stop-color:#533201"/>
				<stop offset="1" style="stop-color:#2A1500"/>
			</linearGradient>
			<path class="st54" d="M313.2,383c-1.2-0.5-6.8,0.7-9.2-0.1c-4.5-1.4-7.2-1.3-9.4-1.8c-6.8-1.3-20.9-1.2-27.8-1.9&#10;&#9;&#9;&#9;&#9;c-7.6-0.7-22.8-2.9-30.4-3.8c-8.3-0.9-28.1-1.5-36.4-2.2c-8.9-0.8-23.8-1.7-32.7-2.4c-6.7-0.6-19.6-3-26.3-3.8&#10;&#9;&#9;&#9;&#9;c-4.6-0.5-13.7-1.9-18.3-2.4c-4-0.5-10.3-1-15.9-2.8c-4.7-1.5-9.9-2.6-11-5.7c-1-3.1,2.4-1.6,3.2-2.2c1.1-0.7,2.1-4.5,1-5.3&#10;&#9;&#9;&#9;&#9;c-1.3-0.9-3.6-0.2-6.2,1.9c-2.6,2.1-2.6,2.1-1.9,5.4c0.7,3.3,3,6.2,5.4,7.9c2.4,1.7,2.6,3.3,6.8,4.4c4.2,1.1,13,3.6,17.4,4.5&#10;&#9;&#9;&#9;&#9;c8.9,2,17.6,4.8,34.1,5.1c9.5,0.2,30.3,3.3,39.7,4c7,0.5,19.6,0.5,26.6,1c7,0.6,22.1,1.6,29.1,2.1c7.2,0.5,22.2,1.6,29.5,1.9&#10;&#9;&#9;&#9;&#9;c4.2,0.2,12.3,1.8,16.6,1.6c1.3-0.1,4-0.4,5.4-0.5c2-0.2,5.7-1.4,7.9-0.7c2,0.5,3.5,1,3.5,1C314.7,387.5,314.5,383.5,313.2,383z" style="fill: url('#SVGID_51_');"/>
			<path class="st47" d="M180.2,380.6c-6-0.7-12.2-1.5-17.5-1.9c-3-0.3-5.4-0.4-7.3-0.5c-3.2-0.1-6.4-0.2-9.4-0.5&#10;&#9;&#9;&#9;&#9;c-8.4-0.7-14.4-2.2-20.1-3.5c-1.6-0.4-3.1-0.7-4.6-1.1c-3.1-0.7-8.4-2.1-12.7-3.3c-1.8-0.5-3.5-0.9-4.7-1.3&#10;&#9;&#9;&#9;&#9;c-2.9-0.7-3.9-1.8-5-2.8c-0.5-0.5-1.1-1.1-1.8-1.6c-2.2-1.5-4.8-4.4-5.5-8.1c-0.7-3.4-0.7-3.5,2-5.7c2.7-2.2,5.1-2.9,6.5-1.9&#10;&#9;&#9;&#9;&#9;c0.4,0.3,0.6,0.9,0.6,1.7c0,1.4-0.7,3.5-1.6,4c-0.3,0.2-0.8,0.2-1.4,0.2c-0.7,0-1.4-0.1-1.7,0.3c-0.2,0.2-0.2,0.7,0.1,1.4&#10;&#9;&#9;&#9;&#9;c0.8,2.5,4.9,3.7,8.9,4.9c0.6,0.2,1.3,0.4,1.9,0.6c5,1.6,10.5,2.2,14.6,2.6l1.3,0.1c2.2,0.3,5.4,0.7,8.8,1.1&#10;&#9;&#9;&#9;&#9;c3.5,0.5,7.2,1,9.5,1.2c3,0.3,7.2,1,11.6,1.7c5.3,0.8,10.8,1.7,14.5,2l0.2,0c4.5,0.4,10.6,0.8,16.5,1.2&#10;&#9;&#9;&#9;&#9;c5.8,0.4,11.8,0.8,16.2,1.2c3.6,0.3,9.3,0.6,15.4,0.9c8,0.4,16.3,0.8,21,1.3c3.4,0.4,8.2,1,13.3,1.7c6.3,0.8,12.9,1.7,17.1,2.1&#10;&#9;&#9;&#9;&#9;l0.4,0c2.6,0.2,6.2,0.4,9.9,0.5c4.3,0.2,8.7,0.3,12.5,0.7c2,0.2,3.6,0.4,4.9,0.6c0.7,0.1,1.4,0.2,2.2,0.3&#10;&#9;&#9;&#9;&#9;c1.8,0.2,4.1,0.5,7.3,1.5c0.3,0.1,0.7,0.2,1.1,0.2c1.3,0.1,3.1,0,4.6-0.1c1.7-0.1,3-0.2,3.6,0c0.8,0.3,1.1,1.7,1.2,2.2&#10;&#9;&#9;&#9;&#9;c0.2,1.3,0.1,3-0.6,3.6l-0.1,0.1l-0.1,0c0,0-1.5-0.4-3.4-1c-0.3-0.1-0.5-0.1-0.8-0.1c-1.4-0.1-3.2,0.2-4.8,0.5&#10;&#9;&#9;&#9;&#9;c-0.8,0.2-1.6,0.3-2.2,0.4c-0.4,0-0.9,0.1-1.5,0.2c-1.3,0.1-2.9,0.3-3.9,0.4c-0.9,0-2.1,0-3.6-0.1c-1.9-0.2-4.1-0.5-6.1-0.7&#10;&#9;&#9;&#9;&#9;c-2.6-0.3-5-0.7-6.8-0.7c-6.7-0.3-19.8-1.2-27.6-1.7l-1.9-0.1c-8-0.6-22.4-1.6-29.1-2.1c-3.5-0.3-8.5-0.4-13.4-0.5&#10;&#9;&#9;&#9;&#9;c-4.8-0.1-9.7-0.2-13.2-0.5c-0.4,0-0.8-0.1-1.2-0.1C190.4,381.8,185.5,381.3,180.2,380.6z M287.3,387.5c2.1,0.3,4.2,0.6,6.1,0.7&#10;&#9;&#9;&#9;&#9;c1.5,0.1,2.6,0.2,3.6,0.1c0.9,0,2.5-0.2,3.8-0.3c0.6-0.1,1.1-0.1,1.5-0.2c0.6-0.1,1.3-0.2,2.2-0.4c1.6-0.3,3.4-0.7,5-0.5&#10;&#9;&#9;&#9;&#9;c0.3,0,0.7,0.1,0.9,0.2c1.6,0.4,2.9,0.8,3.3,0.9c0.4-0.5,0.5-1.8,0.3-3c-0.2-1-0.5-1.7-0.9-1.8c-0.1,0-0.2-0.1-0.4-0.1&#10;&#9;&#9;&#9;&#9;c-0.6-0.1-1.8,0-2.9,0.1c-2.1,0.2-4.6,0.3-5.9-0.1c-3.1-0.9-5.4-1.2-7.2-1.4c-0.8-0.1-1.5-0.2-2.2-0.3c-1.3-0.2-2.9-0.5-4.9-0.6&#10;&#9;&#9;&#9;&#9;c-3.8-0.3-8.2-0.5-12.5-0.7c-3.8-0.1-7.3-0.3-9.9-0.5l-0.4,0c-4.2-0.4-10.8-1.3-17.1-2.1c-5.1-0.7-9.9-1.3-13.3-1.7&#10;&#9;&#9;&#9;&#9;c-4.7-0.5-13-0.9-20.9-1.3c-6.1-0.3-11.8-0.6-15.4-0.9c-4.4-0.4-10.4-0.8-16.2-1.2c-5.9-0.4-12-0.9-16.5-1.2l-0.2,0&#10;&#9;&#9;&#9;&#9;c-3.7-0.3-9.2-1.2-14.6-2.1c-4.4-0.7-8.6-1.4-11.5-1.7c-2.4-0.3-6-0.8-9.6-1.2c-3.2-0.4-6.6-0.9-8.8-1.1l-1.3-0.1&#10;&#9;&#9;&#9;&#9;c-4.1-0.4-9.6-1.1-14.7-2.7c-0.6-0.2-1.3-0.4-1.9-0.6c-4.3-1.3-8.3-2.5-9.2-5.3c-0.3-0.9-0.3-1.5,0-1.9c0.4-0.6,1.4-0.6,2.2-0.5&#10;&#9;&#9;&#9;&#9;c0.4,0,0.9,0,1.1-0.1c0.7-0.4,1.3-2.2,1.4-3.6c0-0.6-0.1-1.1-0.4-1.3c-1.2-0.8-3.4-0.1-5.8,1.9c-2.5,2-2.5,2-1.8,5.1&#10;&#9;&#9;&#9;&#9;c0.7,3.5,3.2,6.3,5.3,7.7c0.8,0.6,1.4,1.1,1.9,1.7c1.1,1.1,2,2,4.7,2.7c1.2,0.3,2.9,0.8,4.7,1.3c4.3,1.2,9.6,2.6,12.7,3.3&#10;&#9;&#9;&#9;&#9;c1.5,0.3,3,0.7,4.6,1.1c5.7,1.4,11.7,2.8,20,3.5c3,0.3,6.1,0.4,9.3,0.5c1.9,0,4.3,0.2,7.3,0.5c5.3,0.5,11.5,1.2,17.5,1.9&#10;&#9;&#9;&#9;&#9;c5.8,0.7,11.3,1.3,14.9,1.6c3.4,0.3,8.4,0.4,13.2,0.5c4.9,0.1,9.9,0.2,13.4,0.5c6.7,0.5,21.1,1.6,29.1,2.1l1.9,0.1&#10;&#9;&#9;&#9;&#9;c7.8,0.5,20.9,1.5,27.6,1.7c0.4,0,0.9,0.1,1.5,0.1C283.5,387,285.3,387.2,287.3,387.5z" style="fill: rgb(53, 17, 0);"/>
		</g><path class="st47" d="M288.2,383.4c-9-1.2-18.2-1.5-27.3-2c-9.1-0.5-18.2-1.6-27.3-2.5c-4.6-0.5-9.1-1.1-13.7-1.3&#10;&#9;&#9;&#9;c-4.6-0.3-9.2-0.3-13.8-0.5c-9.1-0.3-18.1-1.6-27.2-1.7c-8.9-0.1-17.5-1-26.2-2.6c-9-1.6-18-2.8-27-4.4c-4.5-0.8-9-1.5-13.5-2.3&#10;&#9;&#9;&#9;c-4-0.7-7.9-1.3-11.7-2.8c-3.3-1.3-7.5-3.2-7.9-7.2c-0.1-1.4,0.6-2.7,1.7-3.5c1.7-1.3,3.6-0.6,5.3,0.4c0.1,0.1,0.2,0.2,0.1,0.3&#10;&#9;&#9;&#9;c0.2,0.2,0,0.7-0.3,0.5c-1.6-0.9-3.2-0.2-4.5,1c-0.6,0.5-0.8,1.2-0.5,2c0.6,1.5,2.6,2.5,4,3.2c3.4,1.7,7.1,2.9,10.8,3.8&#10;&#9;&#9;&#9;c7.5,2,15.4,2.6,23.1,3.6c8.8,1.1,17.5,2.4,26.2,4.1c4.2,0.8,8.4,1.3,12.7,1.6c4.3,0.2,8.6-0.1,12.8,0.1c4.5,0.2,8.9,1,13.3,1.4&#10;&#9;&#9;&#9;c4.3,0.5,8.7,0.5,13.1,0.6c4.4,0,8.7,0,13.1,0.4c4.3,0.4,8.6,1.4,12.9,1.8c4.4,0.4,8.9,0.6,13.3,1.2c4.5,0.6,8.9,1.1,13.4,1.5&#10;&#9;&#9;&#9;c9.2,0.8,18.4,1,27.6,1.9c4.4,0.4,8.7,1.5,13.1,2.1c1.7,0.2,3.4,0.3,5.2,0.3c0.9,0,3.5,0.3,4.1-0.6c0.2-0.2,0.5,0,0.3,0.2&#10;&#9;&#9;&#9;c-0.4,0.6-1.3,0.6-1.9,0.7c-1.2,0.2-2.5,0.2-3.7,0.2c-4.2,0-8.2-1.1-12.3-1.7c-8.9-1.4-18-1.4-27-2.1c-4.5-0.3-9-0.7-13.5-1.2&#10;&#9;&#9;&#9;c-4.5-0.5-8.9-1.1-13.4-1.5c-4.4-0.3-8.8-0.7-13.1-1.6c-4.2-0.8-8.6-1-12.9-1c-4.3-0.1-8.7,0-13-0.2c-4.5-0.2-8.9-0.9-13.3-1.4&#10;&#9;&#9;&#9;c-4.4-0.5-8.7-0.5-13.1-0.5c-4.3,0.1-8.6-0.3-12.8-0.9c-4.3-0.6-8.5-1.6-12.7-2.2c-4.4-0.7-8.8-1.3-13.2-1.9&#10;&#9;&#9;&#9;c-8.7-1.2-17.5-1.8-26-3.8c-4.9-1.1-10-2.5-14.4-5c-1.4-0.8-3.4-2.1-3.4-3.9c0-0.8,0.7-1.5,1.3-2c0.9-0.7,1.9-1.1,2.9-1.1&#10;&#9;&#9;&#9;c-0.8-0.3-1.7-0.5-2.7-0.1c-0.9,0.3-1.6,1.1-1.9,1.9c-0.6,1.6,0.3,3.4,1.3,4.6c1.2,1.3,3.2,2.2,4.7,2.9c1.8,0.9,3.8,1.5,5.7,2&#10;&#9;&#9;&#9;c4.4,1.1,9.1,1.7,13.6,2.5c4.5,0.8,9,1.5,13.5,2.3c4.5,0.8,9,1.4,13.5,2.1c4.4,0.7,8.8,1.6,13.3,2.3c4.4,0.7,8.8,1,13.2,1.3&#10;&#9;&#9;&#9;c4.4,0.2,8.9,0.1,13.3,0.3c4.5,0.2,9.1,0.8,13.6,1.2c4.6,0.4,9.2,0.5,13.8,0.6c9.2,0.3,18.3,1.4,27.4,2.3c9,1,18.1,1.7,27.2,2.2&#10;&#9;&#9;&#9;c9.2,0.5,18.3,1.2,27.3,2.7c6.4,1,12.9,1.7,19.3,1.4c0.2,0,0.3,0.3,0.1,0.3C305.4,386.1,296.9,384.5,288.2,383.4z M91.9,355.7&#10;&#9;&#9;&#9;c0.1,4.7,3.9,7,7.9,8.3c7.9,2.7,16.1,3.9,24.3,5.5c9,1.8,18.1,3.2,27.1,4.4c9,1.2,18,2.1,27.1,2.7c9.1,0.6,18.2,0.9,27.2,1.6&#10;&#9;&#9;&#9;c18.1,1.3,36.1,2.7,54.2,4.4c4.5,0.4,9,0.7,13.6,0.8c4.5,0.1,9,0.2,13.5,0.7c9,0.9,17.8,3.3,27,3.2c0.2,0,0.3-0.3,0-0.4&#10;&#9;&#9;&#9;c-9.5-0.1-18.6-2.7-28-3.5c-4.5-0.4-9-0.5-13.5-0.6c-4.5-0.1-9.1-0.5-13.6-0.9c-9-0.9-18-1.8-27.1-2.4&#10;&#9;&#9;&#9;c-18.1-1.3-36.2-2.5-54.3-3.5c-9.1-0.5-18.1-1.6-27.1-2.8c-9.1-1.2-18.2-2.6-27.1-4.5c-8.2-1.7-16.6-2.6-24.4-5.8&#10;&#9;&#9;&#9;c-3.2-1.3-6.4-3.6-6.1-7.5c0.1-1.7,0.8-3.5,2.2-4.6c1.7-1.3,3.7-1.2,5.8-0.8c0.4,0.1,0.4-0.5,0.1-0.6c-2.2-0.4-4.7-0.5-6.4,1.2&#10;&#9;&#9;&#9;C92.7,352,91.9,353.8,91.9,355.7z M96.7,363.9c6.7,4.2,15.1,5,22.7,6.4c8.5,1.6,17,3.3,25.6,4.6c8.8,1.3,17.7,1.6,26.6,2.3&#10;&#9;&#9;&#9;c8.7,0.6,17.3,2.2,26,2.7c4.4,0.3,8.8,0.5,13.3,0.8c4.4,0.3,8.8,0.6,13.2,0.4c4.4-0.1,8.9,0.4,13.3,0.9c4.5,0.5,9,0.8,13.5,1.1&#10;&#9;&#9;&#9;c9.1,0.4,18.2,1.1,27.4,1.9c4.5,0.4,9.1,0.8,13.6,1.3c4.4,0.5,8.7,1.1,13.2,1.3c0.2,0,0.2-0.3,0-0.3c-4.2-0.2-8.4-0.8-12.6-1.4&#10;&#9;&#9;&#9;c-4.3-0.6-8.7-1-13-1.4c-8.6-0.7-17.1-1.5-25.7-1.9c-4.3-0.2-8.7-0.4-13-0.8c-4.2-0.5-8.5-1.1-12.8-1.2c-4.2-0.1-8.4,0.1-12.7-0.2&#10;&#9;&#9;&#9;c-4-0.2-8.1-0.6-12.1-0.8c-4.5-0.2-9-0.5-13.5-1.1c-4.5-0.6-9-1.3-13.5-1.7c-9.1-0.8-18.2-1-27.2-2.1c-9-1.1-17.9-2.9-26.8-4.6&#10;&#9;&#9;&#9;c-8.3-1.6-17.5-2.4-25-6.8C96.7,363.3,96.4,363.7,96.7,363.9z M99.6,366.1c1.1,0.8,2.4,1.1,3.7,1.6c1.7,0.6,3.3,1.2,5,1.7&#10;&#9;&#9;&#9;c3.5,0.9,7,1.6,10.5,2.2c7.9,1.3,15.6,3.3,23.4,4.7c7.9,1.4,16,1.2,24,1.5c7.9,0.3,15.6,1.4,23.5,2.1c4.5,0.4,8.9,1.1,13.4,1.5&#10;&#9;&#9;&#9;c4.4,0.4,8.9,0.5,13.3,0.7c4.6,0.2,9.1,0.5,13.7,0.7c4.6,0.2,9.2,0.2,13.8,0.7c4.5,0.5,9,1.2,13.6,1.1c4.5-0.1,8.9,0.1,13.4,0.6&#10;&#9;&#9;&#9;c8.9,1.1,17.8,3.1,26.7,3.8c0.2,0,0.2-0.3,0-0.3c-7.9-0.8-15.7-2.5-23.6-3.6c-3.9-0.5-7.8-1-11.7-1.1c-4-0.1-7.9,0.1-11.9-0.4&#10;&#9;&#9;&#9;c-4-0.4-8-0.9-12-1.1c-4.1-0.2-8.1-0.3-12.2-0.5c-4-0.2-8-0.5-12-0.6c-3.7-0.2-7.5-0.3-11.2-0.6c-8.9-0.8-17.8-2-26.7-2.9&#10;&#9;&#9;&#9;c-8.9-0.9-17.8-0.6-26.7-1.3c-9-0.7-17.5-3.4-26.3-4.9c-4.3-0.7-8.7-1.3-12.9-2.4c-2.1-0.5-4.2-1.1-6.3-1.9&#10;&#9;&#9;&#9;c-1.4-0.6-3.1-0.8-4.3-1.7C99.6,365.4,99.3,365.9,99.6,366.1z" style="fill: rgb(53, 17, 0);" transform="matrix(1, 0, 0, 1, -55.65631973743439, -291.56324005126953)"/><g transform="matrix(1, 0, 0, 1, -55.65631973743439, -291.56324005126953)">
			
				<linearGradient id="SVGID_52_" gradientUnits="userSpaceOnUse" x1="150.1746" y1="321.7387" x2="149.6033" y2="350.2924" gradientTransform="matrix(0.9905 -0.1374 0.1374 0.9905 -22.6966 72.1141)">
				<stop offset="0" style="stop-color:#2A1500"/>
				<stop offset="1.337788e-03" style="stop-color:#2A1500"/>
				<stop offset="0.1372" style="stop-color:#482A00"/>
				<stop offset="0.2144" style="stop-color:#533200"/>
				<stop offset="0.4883" style="stop-color:#603804"/>
				<stop offset="0.4943" style="stop-color:#603804"/>
				<stop offset="0.7393" style="stop-color:#553301"/>
				<stop offset="0.7499" style="stop-color:#533201"/>
				<stop offset="1" style="stop-color:#2A1500"/>
			</linearGradient>
			<path class="st55" d="M61.8,397.4c1.1-0.5,6.9,0.3,9.2-0.5c4.4-1.6,7.1-1.7,9.3-2.2c6.8-1.6,20.8-2.2,27.7-3.2&#10;&#9;&#9;&#9;&#9;c7.5-1.1,22.6-4.1,30.2-5.3c8.2-1.3,28-2.9,36.2-4c8.8-1.2,23.7-2.8,32.5-4c6.7-0.9,19.4-4,26.1-5c4.6-0.7,13.6-2.5,18.2-3.3&#10;&#9;&#9;&#9;&#9;c4-0.7,10.3-1.5,15.8-3.6c4.6-1.7,9.8-3.1,10.7-6.2c0.9-3.1-2.4-1.5-3.3-2c-1.2-0.7-2.3-4.4-1.2-5.3c1.3-1,3.5-0.4,6.2,1.6&#10;&#9;&#9;&#9;&#9;c2.7,2,2.7,2,2.2,5.3c-0.5,3.3-2.7,6.3-5,8.1c-2.3,1.8-2.4,3.4-6.5,4.7c-4.1,1.3-12.8,4.2-17.2,5.4c-8.8,2.4-17.4,5.6-33.8,6.7&#10;&#9;&#9;&#9;&#9;c-9.4,0.6-30.1,4.8-39.5,6c-6.9,0.9-19.6,1.4-26.5,2.3c-7,0.9-22,2.7-29,3.5c-7.2,0.9-22.1,2.7-29.3,3.3&#10;&#9;&#9;&#9;&#9;c-4.2,0.4-12.2,2.4-16.5,2.4c-1.3,0-4-0.2-5.4-0.2c-2-0.1-5.7-1.1-8-0.4c-2,0.6-3.4,1.1-3.4,1.1&#10;&#9;&#9;&#9;&#9;C60.5,401.9,60.6,397.9,61.8,397.4z" style="fill: url('#SVGID_52_');"/>
			<path class="st47" d="M180.8,390.7c-0.4,0.1-0.8,0.1-1.2,0.2c-3.4,0.4-8.4,0.8-13.1,1.2c-4.9,0.4-9.9,0.7-13.4,1.2&#10;&#9;&#9;&#9;&#9;c-6.7,0.9-21,2.6-29,3.5l-1.9,0.2c-7.8,0.9-20.8,2.5-27.5,3.1c-1.8,0.2-4.2,0.6-6.8,1.1c-2.1,0.4-4.2,0.8-6.1,1&#10;&#9;&#9;&#9;&#9;c-1.5,0.2-2.7,0.3-3.6,0.3c-0.9,0-2.6-0.1-3.9-0.2c-0.6,0-1.1-0.1-1.5-0.1c-0.6,0-1.4-0.1-2.2-0.3c-1.6-0.2-3.4-0.5-4.8-0.3&#10;&#9;&#9;&#9;&#9;c-0.3,0-0.6,0.1-0.8,0.2c-2,0.6-3.4,1.1-3.4,1.1l-0.1,0l-0.1-0.1c-0.7-0.6-1-2.2-0.8-3.6c0.1-0.6,0.3-1.9,1.1-2.3&#10;&#9;&#9;&#9;&#9;c0.5-0.2,1.9-0.2,3.6-0.2c1.5,0,3.3,0.1,4.6-0.1c0.4-0.1,0.8-0.1,1.1-0.2c3.1-1.1,5.4-1.5,7.2-1.8c0.8-0.1,1.5-0.3,2.1-0.4&#10;&#9;&#9;&#9;&#9;c1.3-0.3,2.9-0.6,4.9-0.9c3.8-0.5,8.2-0.9,12.5-1.3c3.7-0.3,7.3-0.6,9.9-1l0.4-0.1c4.2-0.6,10.7-1.8,17-2.9&#10;&#9;&#9;&#9;&#9;c5.1-0.9,9.8-1.8,13.2-2.3c4.7-0.7,12.9-1.6,20.9-2.4c6.1-0.6,11.8-1.2,15.4-1.7c4.4-0.6,10.3-1.3,16.1-2c5.9-0.7,12-1.4,16.4-2&#10;&#9;&#9;&#9;&#9;l0.2,0c3.7-0.5,9.2-1.7,14.4-2.8c4.4-0.9,8.5-1.8,11.5-2.3c2.4-0.4,6-1.1,9.5-1.7c3.3-0.6,6.5-1.2,8.7-1.6l1.3-0.2&#10;&#9;&#9;&#9;&#9;c4-0.6,9.5-1.5,14.4-3.3c0.6-0.2,1.3-0.5,1.9-0.7c3.9-1.4,7.9-2.8,8.6-5.3c0.2-0.7,0.2-1.1,0-1.4c-0.3-0.3-1-0.3-1.7-0.2&#10;&#9;&#9;&#9;&#9;c-0.6,0.1-1.1,0.1-1.4-0.1c-0.9-0.5-1.7-2.5-1.8-4c-0.1-0.8,0.1-1.4,0.5-1.8c1.3-1.1,3.8-0.5,6.6,1.6c2.8,2,2.8,2.1,2.3,5.6&#10;&#9;&#9;&#9;&#9;c-0.6,3.7-3,6.7-5.1,8.3c-0.8,0.6-1.3,1.1-1.8,1.7c-1,1.1-2,2.2-4.9,3.1c-1.2,0.4-2.8,0.9-4.6,1.5c-4.2,1.4-9.5,3.1-12.5,3.9&#10;&#9;&#9;&#9;&#9;c-1.5,0.4-3,0.8-4.6,1.3c-5.7,1.6-11.5,3.3-19.9,4.5c-3,0.4-6.1,0.7-9.3,1c-1.9,0.1-4.2,0.4-7.3,0.8c-5.2,0.7-11.4,1.8-17.3,2.8&#10;&#9;&#9;&#9;&#9;C189.3,389.3,184.4,390.2,180.8,390.7z M93.3,399.6c0.5-0.1,1-0.1,1.5-0.2c6.6-0.6,19.7-2.2,27.5-3.1l1.9-0.2&#10;&#9;&#9;&#9;&#9;c7.9-0.9,22.3-2.7,29-3.5c3.5-0.5,8.5-0.8,13.4-1.2c4.8-0.4,9.7-0.7,13.1-1.2c3.7-0.5,9.1-1.4,14.8-2.4c6-1,12.1-2.1,17.4-2.8&#10;&#9;&#9;&#9;&#9;c3-0.4,5.4-0.7,7.3-0.8c3.2-0.2,6.4-0.5,9.3-0.9c8.3-1.2,14.2-2.8,19.8-4.5c1.6-0.5,3.1-0.9,4.6-1.3c3-0.8,8.3-2.5,12.5-3.9&#10;&#9;&#9;&#9;&#9;c1.8-0.6,3.4-1.1,4.6-1.5c2.7-0.8,3.6-1.8,4.6-2.9c0.5-0.6,1-1.1,1.8-1.7c2-1.5,4.4-4.4,4.9-8c0.5-3.2,0.5-3.2-2.1-5&#10;&#9;&#9;&#9;&#9;c-2.6-1.9-4.8-2.5-5.9-1.6c-0.2,0.2-0.3,0.7-0.3,1.3c0.1,1.4,0.8,3.1,1.5,3.5c0.2,0.1,0.6,0.1,1.1,0c0.8-0.1,1.7-0.2,2.2,0.4&#10;&#9;&#9;&#9;&#9;c0.3,0.4,0.4,1,0.1,1.9c-0.8,2.8-4.8,4.2-9,5.7c-0.6,0.2-1.3,0.4-1.9,0.7c-5,1.8-10.5,2.7-14.5,3.4l-1.3,0.2&#10;&#9;&#9;&#9;&#9;c-2.2,0.4-5.5,1-8.7,1.6c-3.5,0.6-7.1,1.3-9.5,1.7c-3,0.5-7.1,1.3-11.4,2.2c-5.3,1.1-10.8,2.2-14.5,2.8l-0.2,0&#10;&#9;&#9;&#9;&#9;c-4.5,0.6-10.6,1.3-16.4,2c-5.8,0.7-11.7,1.4-16.1,2c-3.6,0.5-9.3,1.1-15.4,1.7c-7.9,0.8-16.2,1.6-20.9,2.4&#10;&#9;&#9;&#9;&#9;c-3.3,0.5-8.1,1.4-13.2,2.3c-6.3,1.1-12.8,2.3-17,2.9l-0.4,0.1c-2.6,0.4-6.2,0.7-9.9,1c-4.3,0.4-8.7,0.8-12.4,1.3&#10;&#9;&#9;&#9;&#9;c-2,0.3-3.6,0.6-4.9,0.9c-0.7,0.2-1.4,0.3-2.2,0.4c-1.8,0.3-4,0.7-7.1,1.8c-1.3,0.5-3.8,0.4-5.9,0.4c-1.2,0-2.3-0.1-2.9,0&#10;&#9;&#9;&#9;&#9;c-0.2,0-0.3,0.1-0.4,0.1c-0.4,0.2-0.7,0.9-0.8,1.8c-0.1,1.2,0.1,2.5,0.5,3c0.4-0.1,1.7-0.6,3.2-1.1c0.3-0.1,0.6-0.2,0.9-0.2&#10;&#9;&#9;&#9;&#9;c1.5-0.2,3.4,0.1,5,0.3c0.8,0.1,1.6,0.2,2.2,0.3c0.4,0,0.9,0.1,1.5,0.1c1.3,0.1,2.9,0.2,3.9,0.2c0.9,0,2.1-0.1,3.5-0.3&#10;&#9;&#9;&#9;&#9;c1.9-0.3,4-0.7,6.1-1C89.9,400.2,91.7,399.8,93.3,399.6z" style="fill: rgb(53, 17, 0);"/>
		</g><path class="st47" d="M60.9,399.9c-0.2,0-0.2-0.3,0-0.3c6.5,0,12.9-1,19.3-2.3c9-1.9,18-3.1,27.2-4c9.1-0.9,18-2.1,27-3.5&#10;&#9;&#9;&#9;c9.1-1.4,18.1-3,27.3-3.7c4.6-0.4,9.2-0.7,13.7-1.3c4.5-0.6,9-1.4,13.5-1.8c4.4-0.5,8.9-0.6,13.3-1c4.4-0.4,8.8-1,13.1-1.9&#10;&#9;&#9;&#9;c4.4-0.9,8.8-2,13.2-2.9c4.5-0.9,8.9-1.7,13.4-2.7c4.5-1,8.9-2,13.4-3c4.5-1,9-1.8,13.4-3.1c1.9-0.6,3.8-1.3,5.6-2.3&#10;&#9;&#9;&#9;c1.5-0.8,3.5-1.8,4.6-3.1c1-1.2,1.8-3.1,1.1-4.7c-0.4-0.8-1.1-1.5-2-1.9c-1-0.3-1.8-0.2-2.6,0.2c1-0.1,2.1,0.3,3,1&#10;&#9;&#9;&#9;c0.6,0.5,1.3,1.1,1.4,1.9c0.2,1.8-1.8,3.2-3.2,4.1c-4.3,2.7-9.3,4.4-14.2,5.7c-8.4,2.3-17.2,3.4-25.8,5c-4.4,0.8-8.8,1.6-13.1,2.5&#10;&#9;&#9;&#9;c-4.2,0.9-8.4,2.1-12.6,2.9c-4.2,0.8-8.5,1.3-12.7,1.5c-4.4,0.2-8.7,0.4-13,1.1c-4.4,0.7-8.8,1.6-13.2,2c-4.3,0.4-8.6,0.5-13,0.8&#10;&#9;&#9;&#9;c-4.3,0.3-8.6,0.7-12.8,1.7c-4.3,1-8.6,1.7-13.1,2.2c-4.5,0.5-8.8,1.4-13.3,2.1c-4.5,0.7-8.9,1.3-13.4,1.9&#10;&#9;&#9;&#9;c-8.9,1.1-18,1.5-26.9,3.4c-4.1,0.8-8,2.2-12.2,2.3c-1.2,0-2.5,0.1-3.7,0c-0.6,0-1.5-0.1-1.9-0.6c-0.2-0.2,0.2-0.5,0.3-0.3&#10;&#9;&#9;&#9;c0.6,0.9,3.3,0.4,4.2,0.4c1.7-0.1,3.4-0.2,5.2-0.5c4.4-0.8,8.6-2.1,13-2.7c9.1-1.3,18.3-2,27.4-3.2c4.5-0.6,8.9-1.3,13.4-2.2&#10;&#9;&#9;&#9;c4.4-0.8,8.8-1.2,13.2-1.8c4.3-0.6,8.5-1.9,12.8-2.4c4.3-0.6,8.7-0.8,13-1c4.4-0.2,8.7-0.5,13-1.2c4.4-0.7,8.8-1.6,13.2-2.1&#10;&#9;&#9;&#9;c4.3-0.4,8.6-0.3,12.8-0.7c4.2-0.5,8.5-1.2,12.6-2.2c8.6-2.1,17.3-3.8,26-5.3c7.7-1.4,15.5-2.4,22.9-4.8c3.6-1.2,7.3-2.5,10.6-4.4&#10;&#9;&#9;&#9;c1.3-0.8,3.3-1.8,3.8-3.4c0.2-0.7,0-1.4-0.6-1.9c-1.3-1.1-2.9-1.7-4.5-0.7c-0.3,0.2-0.5-0.3-0.3-0.5c0-0.1,0-0.2,0.1-0.3&#10;&#9;&#9;&#9;c1.6-1.1,3.5-1.9,5.3-0.7c1.2,0.8,1.9,2,1.9,3.4c-0.2,4-4.3,6.1-7.5,7.6c-3.7,1.7-7.6,2.5-11.5,3.4c-4.5,1-8.9,2-13.4,3&#10;&#9;&#9;&#9;c-8.9,2-17.9,3.6-26.7,5.7c-8.6,2-17.2,3.3-26.1,3.9c-9.1,0.5-18,2.3-27.1,3.1c-4.6,0.4-9.2,0.7-13.7,1.2c-4.6,0.5-9.1,1.3-13.6,2&#10;&#9;&#9;&#9;c-9,1.4-18,2.9-27.1,3.9c-9.1,1-18.2,1.7-27.2,3.3C78.1,398.1,69.8,400.1,60.9,399.9z M279.1,354.3c-1.8-1.6-4.3-1.4-6.5-0.9&#10;&#9;&#9;&#9;c-0.4,0.1-0.3,0.7,0.1,0.6c2-0.5,4-0.7,5.8,0.6c1.4,1,2.2,2.8,2.4,4.5c0.5,3.9-2.6,6.4-5.7,7.8c-7.6,3.5-16.1,4.8-24.1,7&#10;&#9;&#9;&#9;c-8.8,2.3-17.9,4.1-26.9,5.8c-8.9,1.7-17.9,3.1-26.9,4.1c-18,2-36.1,4-54.1,6.2c-9,1.1-18,2.4-26.9,3.7c-4.5,0.7-9,1.2-13.5,1.6&#10;&#9;&#9;&#9;c-4.5,0.3-9,0.7-13.5,1.3c-9.3,1.3-18.3,4.3-27.8,4.9c-0.2,0-0.2,0.4,0,0.3c9.1-0.4,17.8-3.1,26.8-4.5c4.5-0.7,9-1,13.5-1.4&#10;&#9;&#9;&#9;c4.5-0.3,9-0.9,13.5-1.5c17.9-2.6,35.9-4.8,53.9-7c9-1.1,18.1-1.9,27.1-2.9c9-1,18-2.4,26.9-4c9-1.7,18-3.5,26.9-5.7&#10;&#9;&#9;&#9;c8.1-2.1,16.2-3.7,24-6.7c3.9-1.5,7.7-4,7.5-8.7C281.4,357.4,280.5,355.5,279.1,354.3z M276.8,367.2c-7.2,4.8-16.4,5.9-24.6,8&#10;&#9;&#9;&#9;c-8.8,2.2-17.6,4.3-26.5,5.9c-9,1.6-18.1,2.2-27.1,3.4c-4.5,0.6-8.9,1.5-13.4,2.3c-4.4,0.8-8.9,1.3-13.4,1.7&#10;&#9;&#9;&#9;c-4,0.4-8.1,1-12.1,1.4c-4.2,0.5-8.4,0.4-12.7,0.8c-4.3,0.4-8.5,1.2-12.7,1.9c-4.3,0.7-8.6,1-12.9,1.5c-8.6,0.9-17.1,2-25.6,3.1&#10;&#9;&#9;&#9;c-4.3,0.6-8.6,1.2-12.9,2c-4.2,0.8-8.3,1.5-12.5,2c-0.2,0-0.1,0.3,0,0.3c4.4-0.4,8.7-1.1,13.1-1.9c4.5-0.8,9-1.4,13.5-2&#10;&#9;&#9;&#9;c9.1-1.2,18.1-2.4,27.2-3.2c4.5-0.4,8.9-1,13.4-1.7c4.4-0.7,8.8-1.4,13.2-1.5c4.4-0.1,8.8-0.5,13.2-1.1c4.4-0.5,8.8-0.9,13.2-1.4&#10;&#9;&#9;&#9;c8.7-1,17.1-3,25.8-4c8.9-1.1,17.7-1.8,26.5-3.6c8.5-1.7,16.9-3.8,25.3-5.8c7.5-1.8,15.8-3,22.3-7.5&#10;&#9;&#9;&#9;C277.4,367.4,277.1,367,276.8,367.2z M274,369.6c-1.2,1-2.8,1.3-4.2,1.9c-2,0.9-4.1,1.6-6.2,2.2c-4.2,1.3-8.5,2.1-12.8,3&#10;&#9;&#9;&#9;c-8.8,1.9-17.2,5-26.1,6.2c-8.8,1.2-17.8,1.3-26.6,2.6c-8.9,1.3-17.7,2.9-26.5,4.2c-3.7,0.5-7.4,0.8-11.1,1.2c-4,0.4-8,0.8-12,1.2&#10;&#9;&#9;&#9;c-4,0.4-8.1,0.7-12.1,1.1c-4,0.4-8,1.1-11.9,1.7c-4,0.6-7.9,0.6-11.9,0.9c-3.9,0.3-7.8,0.9-11.6,1.6c-7.8,1.5-15.5,3.6-23.3,4.7&#10;&#9;&#9;&#9;c-0.2,0-0.2,0.4,0,0.3c8.9-1.2,17.6-3.6,26.5-5.2c4.4-0.8,8.8-1.2,13.3-1.3c4.5-0.1,9-1.1,13.5-1.8c4.5-0.7,9.2-1,13.7-1.4&#10;&#9;&#9;&#9;c4.6-0.4,9.1-0.9,13.7-1.4c4.4-0.4,8.9-0.7,13.3-1.4c4.4-0.6,8.9-1.5,13.3-2.1c7.8-1.1,15.5-2.5,23.3-3.2c8-0.7,16-0.9,23.9-2.7&#10;&#9;&#9;&#9;c7.8-1.7,15.4-4.1,23.1-5.8c3.5-0.8,7-1.6,10.4-2.7c1.7-0.5,3.3-1.3,5-1.9c1.2-0.5,2.6-0.9,3.6-1.7&#10;&#9;&#9;&#9;C274.6,369.8,274.3,369.3,274,369.6z" style="fill: rgb(53, 17, 0);" transform="matrix(1, 0, 0, 1, -55.65631973743439, -291.56324005126953)"/><g transform="matrix(1, 0, 0, 1, -55.65631973743439, -291.56324005126953)">
			<linearGradient id="SVGID_53_" gradientUnits="userSpaceOnUse" x1="151.7883" y1="336.5036" x2="166.4129" y2="380.6779">
				<stop offset="0" style="stop-color:#F3EDCB"/>
				<stop offset="0.5897" style="stop-color:#E8BD23"/>
				<stop offset="1" style="stop-color:#8C5106"/>
			</linearGradient>
			<path class="st56" d="M169.4,330.6c-3.6-2.9-31.8-21.2-31.2-28.3c0.3-0.6,0.6-1.1,0.9-1.7c0.6-0.9-0.5-2.1-1.4-1.3&#10;&#9;&#9;&#9;&#9;c-0.9,0.8-1.4,1.7-1.5,2.6c-1.3,2.7-1.8,5.5-1.4,8.7c0.6,5,2.7,9.6,3.3,14.6c1.1,10.3-2.8,20.5-2.6,30.8c0.2,9,3.4,16.9,10,23&#10;&#9;&#9;&#9;&#9;c5.5,5.1,22.8,11.1,24.1,10c5.2-4.1,7-7.8,9.5-12.5c1.4-2.5,1.5-5.5,1.8-8.3c0.3-3.4,0.3-6.8,0.2-10.1&#10;&#9;&#9;&#9;&#9;C180.7,348,177.7,337,169.4,330.6z" style="fill: url('#SVGID_53_');"/>
			<linearGradient id="SVGID_54_" gradientUnits="userSpaceOnUse" x1="145.3014" y1="314.1262" x2="173.1392" y2="401.8506">
				<stop offset="0" style="stop-color:#F3EDCB"/>
				<stop offset="0.5897" style="stop-color:#E8BD23"/>
				<stop offset="1" style="stop-color:#8C5106"/>
			</linearGradient>
			<path class="st57" d="M167.1,366.2c2.2,7.4,2.1,15,2.7,22.6c0,0.3-0.5,0.3-0.5,0c-0.7-8.7-0.5-17.3-3.7-25.6&#10;&#9;&#9;&#9;&#9;c-3-7.5-6.8-14.7-11.6-21.1c-4.6-6.2-8.6-12.1-11.2-19.4c-2.4-6.8-5.6-12.6-5.1-20c0-0.1,0.2-0.1,0.1,0&#10;&#9;&#9;&#9;&#9;c-0.3,8.1,3.4,15.4,6.5,22.8c3,7.3,8.1,13.1,12.6,19.6C161.1,351.3,164.9,358.8,167.1,366.2z M169.2,362.8&#10;&#9;&#9;&#9;&#9;c-1.7-6.8-5.6-12.9-9.6-18.6c-4.5-6.3-9.5-12.2-13.3-18.9c-2-3.5-3.4-7.2-4.5-11.1c-0.6-2.3-1.1-5.2-2.8-6.9&#10;&#9;&#9;&#9;&#9;c-0.1-0.1-0.2,0-0.1,0.1c1.8,2.2,2.3,5.6,3,8.3c0.8,3.1,2.1,6.1,3.6,8.9c3.4,6.6,8.3,12.4,12.7,18.4c4.3,5.9,8.2,12.1,10.3,19.1&#10;&#9;&#9;&#9;&#9;c2.4,8,2.7,17.1,1.9,25.4c0,0.3,0.5,0.3,0.5,0C171.7,379.4,171.2,370.7,169.2,362.8z M142.9,331.3c-3-7.1-4.6-14.6-5.9-22.1&#10;&#9;&#9;&#9;&#9;c0-0.1-0.2-0.1-0.2,0c1,7.2,2.7,14.3,5.2,21.2c2.4,6.5,6.3,11.8,10.5,17.3c4.4,5.7,7.6,12.2,9.9,19c2.5,7.4,2.4,15,2.9,22.7&#10;&#9;&#9;&#9;&#9;c0,0.4,0.6,0.4,0.6,0c0.5-14.1-3.2-27.8-11.1-39.5C150.7,343.5,145.8,338.2,142.9,331.3z" style="fill: url('#SVGID_54_');"/>
		</g><linearGradient id="SVGID_55_" gradientUnits="userSpaceOnUse" x1="242.4219" y1="350.1705" x2="169.8173" y2="387.9626">
				<stop offset="0.3131" style="stop-color:#F3EDCB"/>
				<stop offset="0.6485" style="stop-color:#E8BD23"/>
				<stop offset="0.699" style="stop-color:#E4B822"/>
				<stop offset="0.7595" style="stop-color:#D7A91E"/>
				<stop offset="0.8251" style="stop-color:#C39117"/>
				<stop offset="0.8938" style="stop-color:#A6700E"/>
				<stop offset="0.9464" style="stop-color:#8C5106"/>
			</linearGradient><path class="st58" d="M248.8,346.2c-8.3,2.6-16.6,0.1-25,0c-7.6-0.1-15.2,1.3-22.3,3.8c-6.7,2.4-12.3,6.1-17.3,11&#10;&#9;&#9;&#9;&#9;c-2.6,2.5-4.9,5.4-6.9,8.4c-0.6,1-1.1,2-1.4,3.2c-3.4,5.7-6.7,12.4-3.6,16.6c9,12.1,36.8,0.8,48.6-5.8&#10;&#9;&#9;&#9;&#9;c6.7-3.8,12.1-8.8,16.3-15.3c4.3-6.7,7.5-14,12.6-20.2C250.3,347.2,249.8,345.9,248.8,346.2z" style="fill: url('#SVGID_55_');" transform="matrix(1, 0, 0, 1, -55.65631973743439, -291.56324005126953)"/><linearGradient id="SVGID_56_" gradientUnits="userSpaceOnUse" x1="206.3375" y1="367.3975" x2="188.6902" y2="376.352">
				<stop offset="0.3131" style="stop-color:#F3EDCB"/>
				<stop offset="0.6485" style="stop-color:#E8BD23"/>
				<stop offset="0.699" style="stop-color:#E4B822"/>
				<stop offset="0.7595" style="stop-color:#D7A91E"/>
				<stop offset="0.8251" style="stop-color:#C39117"/>
				<stop offset="0.8938" style="stop-color:#A6700E"/>
				<stop offset="0.9464" style="stop-color:#8C5106"/>
			</linearGradient><path class="st59" d="M242.4,350.4c-0.8,0.5-1.6,0.9-2.4,1.3c-3.3,4.2-8.5,5.4-13.5,6.5c-6.8,1.5-14.1,1.7-20.6,4.1&#10;&#9;&#9;&#9;&#9;c-7.3,2.6-13,7.3-18.1,13.1c-2.6,2.9-5.8,6-7.7,9.4c-1,2-1.7,4.2-3.1,6c-0.1,0.1-0.3,0-0.2-0.2c1.7-2.2,2.1-5,3.8-7.2&#10;&#9;&#9;&#9;&#9;c2.2-2.8,4.5-5.6,6.9-8.3c4.4-4.9,9.3-9.4,15.4-12.1c6.5-2.7,13.3-3,20.1-4.5c5.5-1.2,11.9-2.1,16-6.4c-10.4,4.8-23.1,4-34,7.5&#10;&#9;&#9;&#9;&#9;c-7.1,2.3-12.7,6-17.8,11.4c-2.6,2.7-5.1,5.5-7.2,8.6c-1.1,1.7-2.2,3.4-2.9,5.3c-0.2,0.6-0.5,1.8-1.1,2.2&#10;&#9;&#9;&#9;&#9;c0.2-0.1,0.4,0.2,0.2,0.4c-0.1,0-0.1,0.1-0.2,0.1c-0.2,0.1-0.3-0.1-0.3-0.2c1.2-5.7,5.8-11,9.7-15.1c4.5-4.8,9.1-9,15.2-11.5&#10;&#9;&#9;&#9;&#9;c6.3-2.6,13-3.8,19.7-4.8c7.5-1.1,15.2-1.9,21.8-6C242.4,349.8,242.7,350.2,242.4,350.4z M236.8,354.7&#10;&#9;&#9;&#9;&#9;c-7.4,11.4-22.3,13-34.3,16.7c-5.1,1.6-9.5,4.5-13.5,7.9c-2.2,1.9-4.1,4-6,6.1c-1.4,1.6-2.9,3.1-3.7,5.1&#10;&#9;&#9;&#9;&#9;c-0.1,0.2,0.2,0.2,0.2,0.1c1-2.6,3.5-4.8,5.4-6.9c2.2-2.4,4.7-4.7,7.4-6.7c5.1-3.8,10.8-5.7,17-7.1c5.9-1.3,11.7-3.5,17.2-6&#10;&#9;&#9;&#9;&#9;c4.4-2,8.4-4.6,10.5-9.2C236.9,354.7,236.8,354.6,236.8,354.7z" style="fill: url('#SVGID_56_');" transform="matrix(1, 0, 0, 1, -55.65631973743439, -291.56324005126953)"/><linearGradient id="SVGID_57_" gradientUnits="userSpaceOnUse" x1="235.1059" y1="421.3791" x2="164.089" y2="398.0516">
				<stop offset="0" style="stop-color:#F3EDCB"/>
				<stop offset="0.5897" style="stop-color:#E8BD23"/>
				<stop offset="1" style="stop-color:#8C5106"/>
			</linearGradient><path class="st60" d="M247.2,416.3c-3.8-8-10.3-14.2-17.9-18.7c-8-4.8-17.2-7.3-26.5-8.1c-8.7-0.8-18.5-0.1-26.6,3.5&#10;&#9;&#9;&#9;&#9;c-0.2,0.1-1.5,5.2-1,8.4c2.4,15.1,14.3,28.9,29,33.1c7.7,2.2,14.8,1.2,22.3-1.1c4.2-1.3,9.6-2.4,13,1.1c2.2,2.3,3.2,5.7,5,8.3&#10;&#9;&#9;&#9;&#9;c0.4,0.6,1.4,0.5,1.7-0.2C250.4,433.9,251.5,425.3,247.2,416.3z" style="fill: url('#SVGID_57_');" transform="matrix(1, 0, 0, 1, -55.65631973743439, -291.56324005126953)"/><linearGradient id="SVGID_58_" gradientUnits="userSpaceOnUse" x1="227.5045" y1="414.9691" x2="178.8416" y2="395.1153">
				<stop offset="0" style="stop-color:#F3EDCB"/>
				<stop offset="0.5897" style="stop-color:#E8BD23"/>
				<stop offset="1" style="stop-color:#8C5106"/>
			</linearGradient><path class="st61" d="M241.9,431.1c0,0.2-0.3,0.2-0.3,0c-1.3-12.8-8.3-22.1-19.1-28.7c-6.5-4-13.7-5.5-21.3-5.7&#10;&#9;&#9;&#9;&#9;c-5.8-0.2-12.3-0.5-17.9,1.6c0,0-0.1-0.1,0-0.1c5.9-2.6,13.6-2.2,19.9-1.8c7.3,0.4,14.1,2.1,20.3,6.1&#10;&#9;&#9;&#9;&#9;C233.9,409.1,241.2,418.3,241.9,431.1z M213.8,406.4c-4.5-2.3-9.3-4.2-14.2-5.6c-4-1.2-10.7-3.2-14.7-1.1c0,0,0,0.1,0,0&#10;&#9;&#9;&#9;&#9;c4.7-1.7,11,0.3,15.6,1.8c4.5,1.4,8.8,3.3,13,5.3c3.6,1.8,7.1,4,10,6.7c3.3,3,4.9,6.7,6.2,10.8c0.1,0.2,0.4,0.2,0.3,0&#10;&#9;&#9;&#9;&#9;C229.2,415.7,220.9,409.9,213.8,406.4z M212.6,408.6c-3.6-2.3-7.8-3.6-11.9-4.8c-3.7-1.2-7.8-3.3-11.7-3.4c-0.1,0-0.1,0.1,0,0.1&#10;&#9;&#9;&#9;&#9;c3.6,0.1,7.3,2.1,10.7,3.2c4.1,1.4,8.2,2.7,12,4.8c6.6,3.7,10.3,9.7,12.8,16.6c0.1,0.3,0.5,0.2,0.4-0.1&#10;&#9;&#9;&#9;&#9;C223.2,418.1,218.5,412.3,212.6,408.6z" style="fill: url('#SVGID_58_');" transform="matrix(1, 0, 0, 1, -55.65631973743439, -291.56324005126953)"/><linearGradient id="SVGID_59_" gradientUnits="userSpaceOnUse" x1="109.9931" y1="422.2668" x2="169.2266" y2="390.7814">
				<stop offset="0.1444" style="stop-color:#F3EDCB"/>
				<stop offset="0.6029" style="stop-color:#E8BD23"/>
				<stop offset="0.6703" style="stop-color:#E4B822"/>
				<stop offset="0.7509" style="stop-color:#D7A91E"/>
				<stop offset="0.8383" style="stop-color:#C39117"/>
				<stop offset="0.9299" style="stop-color:#A6700E"/>
				<stop offset="1" style="stop-color:#8C5106"/>
			</linearGradient><path class="st62" d="M161.8,385.1c-3.1-4.7-16.7-3.4-24-1.3c-8.6,2.6-16.4,6.7-22.7,13c-6.4,6.5-11.4,15.3-12.5,24.4&#10;&#9;&#9;&#9;&#9;c-0.9,7.7-0.4,18.3,6.5,23.2c0.8,0.6,1.7-0.2,1.8-1c0.7-8.4,8.9-11,16-12.4c7.5-1.4,15-1.7,22.2-4.6c6.8-2.8,11.9-7.6,14.7-14.4&#10;&#9;&#9;&#9;&#9;c1.7-4.2,2.4-9,2.6-13.5C166.7,393.5,164.5,389.2,161.8,385.1z" style="fill: url('#SVGID_59_');" transform="matrix(1, 0, 0, 1, -55.65631973743439, -291.56324005126953)"/><linearGradient id="SVGID_60_" gradientUnits="userSpaceOnUse" x1="134.8704" y1="406.8122" x2="156.6669" y2="396.5752">
				<stop offset="0" style="stop-color:#F3EDCB"/>
				<stop offset="0.5897" style="stop-color:#E8BD23"/>
				<stop offset="1" style="stop-color:#8C5106"/>
			</linearGradient><path class="st63" d="M158.4,389.4c-6.1-0.7-13.2,1-18.8,3.3c-5,2.1-9.6,5-13.5,8.8c-7.5,7.4-12.2,16.7-14.5,27&#10;&#9;&#9;&#9;&#9;c0,0.1-0.2,0.1-0.2-0.1c2-10.6,7.5-21,15.6-28.2c3.9-3.4,8.3-6.3,13.2-8.1c5.6-2.1,12.1-3.7,18.1-3&#10;&#9;&#9;&#9;&#9;C158.6,389.1,158.6,389.4,158.4,389.4z M157.1,392.5c-4.4-0.7-9.3,0.7-13.5,1.9c-4.4,1.3-8.4,4-12,6.8&#10;&#9;&#9;&#9;&#9;c-8.3,6.7-13.8,15.8-16.6,26c0,0,0,0,0,0c2.9-9.6,7.8-17.9,15.2-24.6c3.7-3.3,7.9-6,12.5-7.8c4.2-1.5,9.8-2.9,14.2-2.2&#10;&#9;&#9;&#9;&#9;C157.2,392.7,157.2,392.6,157.1,392.5z M156.2,394.8c-2.9-1-6.1,0.5-8.7,1.7c-3.7,1.8-7.3,4-10.5,6.7c-8,6.6-11.1,16.9-18.9,23.6&#10;&#9;&#9;&#9;&#9;c-0.1,0.1,0,0.3,0.1,0.2c2.9-2.2,5.1-4.9,7-8c2.7-4.3,5.1-8.5,8.6-12.3c3-3.3,6.7-5.8,10.5-8.1c3.4-2,7.8-4.7,11.9-3.7&#10;&#9;&#9;&#9;&#9;C156.2,394.9,156.3,394.8,156.2,394.8z" style="fill: url('#SVGID_60_');" transform="matrix(1, 0, 0, 1, -55.65631973743439, -291.56324005126953)"/><linearGradient id="SVGID_61_" gradientUnits="userSpaceOnUse" x1="164.4522" y1="444.4394" x2="171.9482" y2="397.0172">
				<stop offset="0.1444" style="stop-color:#F3EDCB"/>
				<stop offset="0.6029" style="stop-color:#E8BD23"/>
				<stop offset="0.6703" style="stop-color:#E4B822"/>
				<stop offset="0.7509" style="stop-color:#D7A91E"/>
				<stop offset="0.8383" style="stop-color:#C39117"/>
				<stop offset="0.9299" style="stop-color:#A6700E"/>
				<stop offset="1" style="stop-color:#8C5106"/>
			</linearGradient><path class="st64" d="M189.5,432.2c4.6-14.7-7.3-31.2-21.6-34.3c-0.8-0.2-1.2,0.4-1.2,1c-5.8,4.8-10.3,11.4-14.8,17.3&#10;&#9;&#9;&#9;&#9;c-2.6,3.4-5.2,6.5-7,10.3c-1.5,3.4-2.2,7.1-2.4,10.8c-0.3,7.9,3.1,15.7,7.4,22.2c5,7.5,13.5,8.9,20.3,14.1&#10;&#9;&#9;&#9;&#9;c0.8,0.6,2.1-0.1,1.7-1.2c-1.4-3.9-3.4-7.6-3.8-11.8c-0.5-4.9,4.3-8.3,7.7-11C181.9,444.8,187.1,439.9,189.5,432.2z" style="fill: url('#SVGID_61_');" transform="matrix(1, 0, 0, 1, -55.65631973743439, -291.56324005126953)"/><linearGradient id="SVGID_62_" gradientUnits="userSpaceOnUse" x1="160.1524" y1="452.4181" x2="171.9969" y2="403.9193">
				<stop offset="0" style="stop-color:#F3EDCB"/>
				<stop offset="0.5897" style="stop-color:#E8BD23"/>
				<stop offset="1" style="stop-color:#8C5106"/>
			</linearGradient><path class="st65" d="M161.5,462.3c0.1,0.2-0.2,0.3-0.3,0.1c-6.1-9.4-10.1-19.1-8.2-30.5c0.9-5.4,2.8-10.8,6-15.4&#10;&#9;&#9;&#9;&#9;c1.7-2.5,3.6-4.8,5.4-7.2c0.6-0.8,1.2-2.3,2.2-2.8c0.1,0,0.1,0,0.2,0c0,0.1,0.1,0.2,0.1,0.2c0,0.1-0.1,0.2-0.2,0.1&#10;&#9;&#9;&#9;&#9;c0.3,0.3-7.3,9.6-7.9,10.7c-2.8,4.4-4.7,9.3-5.4,14.4c-0.8,5.5-0.8,11.3,1.1,16.6C156.2,453.6,158.9,457.8,161.5,462.3z&#10;&#9;&#9;&#9;&#9; M170.4,408.7C170.3,408.7,170.3,408.7,170.4,408.7c2.7,4.1,6,7.8,7.4,12.5c2,6.3-1.7,11.7-5.9,16c-6.3,6.4-12.5,12.8-10.7,22.6&#10;&#9;&#9;&#9;&#9;c0,0.2,0.4,0.2,0.4-0.1c-0.8-6.1,0.8-11.1,4.6-15.8c3.1-3.9,7.1-6.9,10-11C182.4,424.1,175.7,415.8,170.4,408.7z M165.6,421.8&#10;&#9;&#9;&#9;&#9;c-1.6,2.5-3.2,4.8-4.3,7.6c-2.9,7.1-4,14.4-2.3,21.9c0,0.2,0.4,0.1,0.3-0.1c-1.7-8.8-0.4-17.7,4.1-25.6c2.3-4,7.3-9,5.1-13.9&#10;&#9;&#9;&#9;&#9;c0,0-0.1,0-0.1,0C169.8,415.3,167.4,419,165.6,421.8z" style="fill: url('#SVGID_62_');" transform="matrix(1, 0, 0, 1, -55.65631973743439, -291.56324005126953)"/><g transform="matrix(1, 0, 0, 1, -55.65631973743439, -291.56324005126953)">
				<linearGradient id="SVGID_63_" gradientUnits="userSpaceOnUse" x1="158.676" y1="364.7775" x2="171.1035" y2="392.6611">
					<stop offset="0" style="stop-color:#FFFFAA"/>
					<stop offset="0.5808" style="stop-color:#F0B21C"/>
					<stop offset="0.6314" style="stop-color:#ECAC1B"/>
					<stop offset="0.6996" style="stop-color:#E09B17"/>
					<stop offset="0.7777" style="stop-color:#CC7F12"/>
					<stop offset="0.8629" style="stop-color:#B0580A"/>
					<stop offset="0.9481" style="stop-color:#8F2900"/>
				</linearGradient>
				<path class="st66" d="M172.7,360.6c-1.9-2.8-5.3-0.3-7.6,0.4c-1.4,0.4-2,1-2.9,2.1c-0.6,0.7-2.3,1.1-3.2,1.6&#10;&#9;&#9;&#9;&#9;&#9;c-0.6,0.3-0.9,1.3-1.1,1.8c-0.6,1.3-4.2-3.1-4.5,1c0,0.2,0.7,3.1-0.1,3.1c-0.8,0.1-1.6,0-2.3,0.1c-1.3,0.1-2.3,1.4-2.9,2.5&#10;&#9;&#9;&#9;&#9;&#9;c-1.8,3,1.4,6.4,3.4,8.2c3.3,2.9,16.5,10.2,18.6,8.6c2.4-1.7,5-13.3,5.1-18.5C175.3,368,174.7,363.5,172.7,360.6z" style="fill: url('#SVGID_63_');"/>
				<linearGradient id="SVGID_64_" gradientUnits="userSpaceOnUse" x1="158.2858" y1="364.3999" x2="169.7771" y2="390.183">
					<stop offset="0" style="stop-color:#FFFFAA"/>
					<stop offset="0.5808" style="stop-color:#F0B21C"/>
					<stop offset="0.6314" style="stop-color:#ECAC1B"/>
					<stop offset="0.6996" style="stop-color:#E09B17"/>
					<stop offset="0.7777" style="stop-color:#CC7F12"/>
					<stop offset="0.8629" style="stop-color:#B0580A"/>
					<stop offset="0.9481" style="stop-color:#8F2900"/>
				</linearGradient>
				<path class="st67" d="M172.9,368.2c-0.1-2.9-1-5.6-1.4-8.5c0-0.1-0.2-0.1-0.2,0c0,2.5,0.8,4.9,1,7.4c0.2,2.5,0.3,5,0.4,7.5&#10;&#9;&#9;&#9;&#9;&#9;c0.1,2.8,0,5.6-0.5,8.4c-0.3,1.8-1.1,3.4-1.7,5.1c0.4-3.9,0.7-7.7,0-11.7c-0.4-2.4-0.9-4.8-1.8-7.1c-1.1-2.7-2.6-5.3-2.9-8.2&#10;&#9;&#9;&#9;&#9;&#9;c0-0.1-0.1-0.1-0.2,0c-0.3,4.1,2.9,8.2,3.7,12.2c0.8,4,0.8,7.9,0.6,11.9c-0.5-2.8-1.4-5.6-2.5-8.1c-0.8-2-1.8-4-2.6-6&#10;&#9;&#9;&#9;&#9;&#9;c-1.1-2.5-1.8-5-2.8-7.5c0-0.1-0.2-0.1-0.2,0c2,8.1,7.7,16,7.7,24.5c-0.6-1.7-1-3.4-1.7-5.1c-0.8-1.9-1.8-3.7-2.8-5.4&#10;&#9;&#9;&#9;&#9;&#9;c-1.2-2-2.7-3.9-4.1-5.8c-0.9-1.2-3.1-3.5-3.2-5.1c0-0.1-0.1-0.1-0.1,0c-0.2,0.6,0.5,1.4,0.8,1.9c1.3,2.3,3.1,4.4,4.6,6.5&#10;&#9;&#9;&#9;&#9;&#9;c1.8,2.4,3.1,5.1,4.3,7.9c0.7,1.7,1.1,3.5,1.8,5.2c-1.5-2.4-4-4.3-6-6.1c-3.9-3.5-6.8-7.3-9.5-11.8c0-0.1-0.1,0-0.1,0.1&#10;&#9;&#9;&#9;&#9;&#9;c1.7,3.4,3.9,6.4,6.4,9.3c2.3,2.6,5.8,4.8,8,7.8c-2.1-2.2-5.4-3.2-8.1-4.3c-2.6-1.1-13.5-5.5-11.6-10c0-0.1-0.1-0.2-0.1-0.1&#10;&#9;&#9;&#9;&#9;&#9;c-1.4,2.7,2.6,5.5,4.4,6.8c2.1,1.7,4.6,2.7,7.1,3.7c3.8,1.6,6.9,2.9,9.5,6.2c0.1,0.1,0.3,0.1,0.9-0.1c0.3-0.1,0.5-0.3,0.5-0.5&#10;&#9;&#9;&#9;&#9;&#9;c1.6-4.7,2.6-7.7,2.6-12.7C173.3,373.9,173,371.1,172.9,368.2z" style="fill: url('#SVGID_64_');"/>
			</g><linearGradient id="SVGID_65_" gradientUnits="userSpaceOnUse" x1="625.3234" y1="-1311.2516" x2="637.75" y2="-1283.3699" gradientTransform="matrix(0.1489 -0.9889 0.9889 0.1489 1346.0911 1211.3508)">
					<stop offset="0" style="stop-color:#FFFFAA"/>
					<stop offset="0.5808" style="stop-color:#F0B21C"/>
					<stop offset="0.6314" style="stop-color:#ECAC1B"/>
					<stop offset="0.6996" style="stop-color:#E09B17"/>
					<stop offset="0.7777" style="stop-color:#CC7F12"/>
					<stop offset="0.8629" style="stop-color:#B0580A"/>
					<stop offset="0.9481" style="stop-color:#8F2900"/>
				</linearGradient><path class="st68" d="M140.5,383.2c-3,1.4-1.1,5.2-0.7,7.5c0.2,1.4,0.7,2.2,1.6,3.2c0.6,0.7,0.7,2.4,1.1,3.4&#10;&#9;&#9;&#9;&#9;&#9;c0.2,0.6,1.2,1,1.7,1.4c1.2,0.8-3.7,3.7,0.3,4.6c0.2,0.1,3.1-0.2,3.1,0.6c-0.1,0.8-0.2,1.5-0.3,2.3c-0.1,1.3,1.1,2.5,2,3.2&#10;&#9;&#9;&#9;&#9;&#9;c2.8,2.2,6.5-0.4,8.6-2.2c3.3-2.8,12.5-14.8,11.3-17.1c-1.4-2.6-12.4-6.9-17.5-7.8C148.2,381.7,143.6,381.7,140.5,383.2z" style="fill: url('#SVGID_65_');" transform="matrix(1, 0, 0, 1, -55.65631973743439, -291.56324005126953)"/><linearGradient id="SVGID_66_" gradientUnits="userSpaceOnUse" x1="624.9328" y1="-1311.6295" x2="636.4237" y2="-1285.8473" gradientTransform="matrix(0.1489 -0.9889 0.9889 0.1489 1346.0911 1211.3508)">
					<stop offset="0" style="stop-color:#FFFFAA"/>
					<stop offset="0.5808" style="stop-color:#F0B21C"/>
					<stop offset="0.6314" style="stop-color:#ECAC1B"/>
					<stop offset="0.6996" style="stop-color:#E09B17"/>
					<stop offset="0.7777" style="stop-color:#CC7F12"/>
					<stop offset="0.8629" style="stop-color:#B0580A"/>
					<stop offset="0.9481" style="stop-color:#8F2900"/>
				</linearGradient><path class="st69" d="M148,384.2c-2.9-0.3-5.7,0.2-8.6,0.1c-0.1,0-0.2,0.2,0,0.2c2.5,0.3,5-0.1,7.5,0.1c2.5,0.1,5,0.5,7.5,0.7&#10;&#9;&#9;&#9;&#9;&#9;c2.8,0.3,5.5,0.8,8.2,1.7c1.7,0.6,3.2,1.6,4.8,2.4c-3.8-0.9-7.5-1.8-11.6-1.8c-2.5,0-4.8,0.2-7.3,0.7c-2.8,0.6-5.6,1.8-8.5,1.6&#10;&#9;&#9;&#9;&#9;&#9;c-0.1,0-0.1,0.1,0,0.2c4,0.9,8.5-1.6,12.6-1.9c4.1-0.2,8,0.3,11.8,1.2c-2.8,0-5.7,0.6-8.4,1.3c-2.1,0.5-4.2,1.2-6.3,1.7&#10;&#9;&#9;&#9;&#9;&#9;c-2.6,0.7-5.2,1-7.8,1.6c-0.1,0-0.1,0.2,0,0.2c8.3-0.8,17-5.3,25.4-4c-1.7,0.4-3.6,0.5-5.3,1c-2,0.5-3.9,1.2-5.7,2&#10;&#9;&#9;&#9;&#9;&#9;c-2.2,0.9-4.2,2.1-6.3,3.2c-1.3,0.7-3.9,2.5-5.5,2.4c-0.1,0-0.1,0.1,0,0.1c0.6,0.3,1.5-0.3,2-0.5c2.5-1,4.8-2.4,7.2-3.6&#10;&#9;&#9;&#9;&#9;&#9;c2.7-1.4,5.5-2.3,8.5-3.1c1.8-0.5,3.7-0.6,5.5-1c-2.6,1.1-4.8,3.3-6.9,5c-4,3.3-8.3,5.6-13.1,7.6c-0.1,0,0,0.1,0.1,0.1&#10;&#9;&#9;&#9;&#9;&#9;c3.6-1.1,6.9-2.8,10.1-4.9c2.9-1.9,5.7-5.1,8.9-6.8c-2.5,1.8-4,4.9-5.5,7.4c-1.4,2.4-7.4,12.6-11.6,10c-0.1,0-0.2,0.1-0.1,0.1&#10;&#9;&#9;&#9;&#9;&#9;c2.5,1.8,5.8-1.8,7.4-3.4c2-1.9,3.4-4.2,4.8-6.5c2.2-3.6,3.9-6.4,7.6-8.5c0.1,0,0.1-0.2,0-0.9c-0.1-0.3-0.3-0.5-0.4-0.6&#10;&#9;&#9;&#9;&#9;&#9;c-4.4-2.3-7.3-3.7-12.2-4.5C153.7,384.7,150.9,384.5,148,384.2z" style="fill: url('#SVGID_66_');" transform="matrix(1, 0, 0, 1, -55.65631973743439, -291.56324005126953)"/><linearGradient id="SVGID_67_" gradientUnits="userSpaceOnUse" x1="2277.2092" y1="-1109.0813" x2="2289.6362" y2="-1081.199" gradientTransform="matrix(-0.935 -0.3548 0.3548 -0.935 2693.9995 189.1165)">
					<stop offset="0" style="stop-color:#FFFFAA"/>
					<stop offset="0.5808" style="stop-color:#F0B21C"/>
					<stop offset="0.6314" style="stop-color:#ECAC1B"/>
					<stop offset="0.6996" style="stop-color:#E09B17"/>
					<stop offset="0.7777" style="stop-color:#CC7F12"/>
					<stop offset="0.8629" style="stop-color:#B0580A"/>
					<stop offset="0.9481" style="stop-color:#8F2900"/>
				</linearGradient><path class="st70" d="M156.7,417.1c0.8,3.2,4.8,2.2,7.2,2.3c1.4,0.1,2.3-0.2,3.4-0.9c0.8-0.5,2.5-0.2,3.5-0.3&#10;&#9;&#9;&#9;&#9;&#9;c0.6-0.1,1.3-0.9,1.7-1.3c1.1-1,2.9,4.4,4.6,0.7c0.1-0.2,0.5-3.1,1.2-2.9c0.7,0.2,1.5,0.5,2.2,0.8c1.2,0.4,2.7-0.5,3.6-1.3&#10;&#9;&#9;&#9;&#9;&#9;c2.7-2.2,1-6.5-0.3-8.9c-2.1-3.8-11.8-15.4-14.3-14.7c-2.8,0.8-9.3,10.7-11.3,15.5C156.9,409.2,155.9,413.7,156.7,417.1z" style="fill: url('#SVGID_67_');" transform="matrix(1, 0, 0, 1, -55.65631973743439, -291.56324005126953)"/><linearGradient id="SVGID_68_" gradientUnits="userSpaceOnUse" x1="2276.8191" y1="-1109.4584" x2="2288.3103" y2="-1083.6755" gradientTransform="matrix(-0.935 -0.3548 0.3548 -0.935 2693.9995 189.1165)">
					<stop offset="0" style="stop-color:#FFFFAA"/>
					<stop offset="0.5808" style="stop-color:#F0B21C"/>
					<stop offset="0.6314" style="stop-color:#ECAC1B"/>
					<stop offset="0.6996" style="stop-color:#E09B17"/>
					<stop offset="0.7777" style="stop-color:#CC7F12"/>
					<stop offset="0.8629" style="stop-color:#B0580A"/>
					<stop offset="0.9481" style="stop-color:#8F2900"/>
				</linearGradient><path class="st71" d="M159.3,409.9c-0.9,2.8-1,5.6-1.7,8.4c0,0.1,0.2,0.2,0.2,0.1c0.9-2.4,1-4.9,1.7-7.3&#10;&#9;&#9;&#9;&#9;&#9;c0.7-2.4,1.5-4.8,2.3-7.1c0.9-2.7,2-5.2,3.4-7.6c1-1.6,2.2-2.8,3.4-4.2c-1.7,3.5-3.4,7-4.2,10.9c-0.5,2.4-0.9,4.8-0.8,7.3&#10;&#9;&#9;&#9;&#9;&#9;c0,2.9,0.6,5.8-0.2,8.7c0,0.1,0.1,0.1,0.1,0.1c1.7-3.7,0.2-8.7,0.8-12.7c0.6-4.1,2-7.7,3.6-11.3c-0.6,2.8-0.6,5.7-0.6,8.5&#10;&#9;&#9;&#9;&#9;&#9;c0.1,2.2,0.2,4.3,0.4,6.5c0.1,2.7-0.1,5.3-0.1,8c0,0.1,0.1,0.1,0.2,0c1-8.2-1.6-17.7,1.5-25.7c0,1.8-0.2,3.6-0.2,5.4&#10;&#9;&#9;&#9;&#9;&#9;c0.1,2,0.4,4,0.7,6c0.4,2.3,1.1,4.6,1.8,6.9c0.4,1.4,1.7,4.3,1.2,5.9c0,0.1,0.1,0.1,0.1,0.1c0.4-0.5,0-1.5-0.1-2.1&#10;&#9;&#9;&#9;&#9;&#9;c-0.4-2.7-1.3-5.2-2-7.8c-0.8-2.9-1.1-5.9-1.2-8.9c-0.1-1.8,0.2-3.7,0.2-5.5c0.5,2.8,2.2,5.4,3.5,7.8c2.4,4.6,3.7,9.3,4.6,14.4&#10;&#9;&#9;&#9;&#9;&#9;c0,0.1,0.1,0,0.1-0.1c-0.4-3.8-1.3-7.4-2.7-10.9c-1.2-3.3-3.7-6.6-4.8-10.1c1.2,2.8,3.9,4.9,6.1,6.9c2,1.9,10.7,9.9,7.3,13.4&#10;&#9;&#9;&#9;&#9;&#9;c-0.1,0.1,0,0.2,0.1,0.1c2.3-2.1-0.5-6-1.7-8c-1.4-2.3-3.4-4.2-5.3-6c-3-2.9-5.4-5.2-6.7-9.2c0-0.1-0.2-0.2-0.9-0.2&#10;&#9;&#9;&#9;&#9;&#9;c-0.3,0-0.6,0.2-0.7,0.3c-3.2,3.8-5.2,6.3-7,11C160.9,404.4,160.2,407.2,159.3,409.9z" style="fill: url('#SVGID_68_');" transform="matrix(1, 0, 0, 1, -55.65631973743439, -291.56324005126953)"/><linearGradient id="SVGID_69_" gradientUnits="userSpaceOnUse" x1="2554.553" y1="375.872" x2="2566.9805" y2="403.7561" gradientTransform="matrix(-0.6845 0.729 -0.729 -0.6845 2218.3186 -1206.1926)">
					<stop offset="0" style="stop-color:#FFFFAA"/>
					<stop offset="0.5808" style="stop-color:#F0B21C"/>
					<stop offset="0.6314" style="stop-color:#ECAC1B"/>
					<stop offset="0.6996" style="stop-color:#E09B17"/>
					<stop offset="0.7777" style="stop-color:#CC7F12"/>
					<stop offset="0.8629" style="stop-color:#B0580A"/>
					<stop offset="0.9481" style="stop-color:#8F2900"/>
				</linearGradient><path class="st72" d="M189.1,411.9c3.3,0.5,3.8-3.6,4.9-5.8c0.6-1.3,0.6-2.2,0.5-3.5c-0.1-0.9,0.8-2.4,1-3.4&#10;&#9;&#9;&#9;&#9;&#9;c0.2-0.6-0.4-1.5-0.6-2.1c-0.5-1.4,5.2-1,2.4-4c-0.2-0.2-2.7-1.6-2.2-2.2c0.5-0.6,1.1-1.1,1.6-1.7c0.8-1,0.5-2.7,0.2-3.8&#10;&#9;&#9;&#9;&#9;&#9;c-1-3.4-5.6-3.4-8.3-3.1c-4.3,0.4-18.7,5.1-19,7.7c-0.4,2.9,6.3,12.7,10,16.4C181.9,408.7,185.7,411.3,189.1,411.9z" style="fill: url('#SVGID_69_');" transform="matrix(1, 0, 0, 1, -55.65631973743439, -291.56324005126953)"/><linearGradient id="SVGID_70_" gradientUnits="userSpaceOnUse" x1="2554.1628" y1="375.4952" x2="2565.6545" y2="401.2789" gradientTransform="matrix(-0.6845 0.729 -0.729 -0.6845 2218.3186 -1206.1926)">
					<stop offset="0" style="stop-color:#FFFFAA"/>
					<stop offset="0.5808" style="stop-color:#F0B21C"/>
					<stop offset="0.6314" style="stop-color:#ECAC1B"/>
					<stop offset="0.6996" style="stop-color:#E09B17"/>
					<stop offset="0.7777" style="stop-color:#CC7F12"/>
					<stop offset="0.8629" style="stop-color:#B0580A"/>
					<stop offset="0.9481" style="stop-color:#8F2900"/>
				</linearGradient><path class="st73" d="M183.5,406.8c2.2,1.9,4.8,3.1,7.1,4.8c0.1,0.1,0.3-0.1,0.2-0.2c-1.8-1.7-4.1-2.8-6.1-4.3&#10;&#9;&#9;&#9;&#9;&#9;c-2-1.5-3.8-3.2-5.7-4.9c-2.1-1.8-4.1-3.8-5.8-6.1c-1.1-1.5-1.7-3.1-2.6-4.7c2.6,2.9,5.2,5.8,8.5,8c2,1.4,4.1,2.6,6.4,3.5&#10;&#9;&#9;&#9;&#9;&#9;c2.7,1.1,5.6,1.7,7.9,3.5c0.1,0.1,0.2,0,0.1-0.1c-2.8-3-7.9-3.5-11.4-5.6c-3.5-2.1-6.3-4.8-9.1-7.7c2.4,1.6,5,2.8,7.6,3.8&#10;&#9;&#9;&#9;&#9;&#9;c2,0.8,4.1,1.4,6.2,2.1c2.6,0.9,4.9,2.1,7.4,3.1c0.1,0,0.2-0.1,0.1-0.1c-7.2-4.1-17-5.3-23.2-11.2c1.6,0.7,3.2,1.6,4.9,2.2&#10;&#9;&#9;&#9;&#9;&#9;c1.9,0.7,3.9,1.2,5.9,1.6c2.3,0.5,4.7,0.7,7,0.9c1.5,0.1,4.6,0.1,5.9,1.1c0,0,0.1,0,0.1-0.1c-0.3-0.6-1.4-0.6-2-0.7&#10;&#9;&#9;&#9;&#9;&#9;c-2.6-0.6-5.3-0.8-7.9-1.1c-3-0.4-5.9-1.2-8.7-2.3c-1.7-0.6-3.3-1.6-5-2.3c2.7,0.6,5.9,0,8.5-0.2c5.2-0.5,10,0.1,15.1,1.2&#10;&#9;&#9;&#9;&#9;&#9;c0.1,0,0.1-0.1,0-0.1c-3.6-1.1-7.3-1.6-11.1-1.7c-3.5-0.1-7.5,0.9-11.2,0.5c3-0.1,6.1-1.8,8.7-3c2.5-1.2,13.3-6.1,15.2-1.6&#10;&#9;&#9;&#9;&#9;&#9;c0,0.1,0.2,0,0.1,0c-1-2.9-5.8-1.8-8-1.5c-2.7,0.4-5.1,1.5-7.6,2.6c-3.8,1.7-6.9,3-11.1,2.7c-0.1,0-0.2,0.1-0.5,0.7&#10;&#9;&#9;&#9;&#9;&#9;c-0.2,0.3-0.1,0.6,0,0.7c2.3,4.4,3.9,7.2,7.5,10.6C179.1,403.2,181.3,404.9,183.5,406.8z" style="fill: url('#SVGID_70_');" transform="matrix(1, 0, 0, 1, -55.65631973743439, -291.56324005126953)"/><linearGradient id="SVGID_71_" gradientUnits="userSpaceOnUse" x1="1406.3057" y1="1227.1359" x2="1418.7332" y2="1255.0195" gradientTransform="matrix(0.3216 0.9469 -0.9469 0.3216 899.4136 -1355.8387)">
					<stop offset="0" style="stop-color:#FFFFAA"/>
					<stop offset="0.5808" style="stop-color:#F0B21C"/>
					<stop offset="0.6314" style="stop-color:#ECAC1B"/>
					<stop offset="0.6996" style="stop-color:#E09B17"/>
					<stop offset="0.7777" style="stop-color:#CC7F12"/>
					<stop offset="0.8629" style="stop-color:#B0580A"/>
					<stop offset="0.9481" style="stop-color:#8F2900"/>
				</linearGradient><path class="st74" d="M198.1,382.4c2-2.7-1.4-5.1-2.8-7c-0.8-1.1-1.6-1.6-2.9-2.1c-0.9-0.3-1.7-1.8-2.5-2.5&#10;&#9;&#9;&#9;&#9;&#9;c-0.5-0.4-1.5-0.4-2.1-0.5c-1.4-0.2,1.6-5-2.4-3.9c-0.2,0.1-2.7,1.6-3,0.9c-0.3-0.7-0.5-1.5-0.8-2.2c-0.5-1.2-2.1-1.7-3.3-2&#10;&#9;&#9;&#9;&#9;&#9;c-3.4-0.7-5.6,3.3-6.7,5.9c-1.7,4-4.3,18.9-2.2,20.4c2.4,1.7,14.2,0.4,19.2-1.2C192,387.3,196.1,385.2,198.1,382.4z" style="fill: url('#SVGID_71_');" transform="matrix(1, 0, 0, 1, -55.65631973743439, -291.56324005126953)"/><linearGradient id="SVGID_72_" gradientUnits="userSpaceOnUse" x1="1405.9155" y1="1226.7579" x2="1417.4069" y2="1252.541" gradientTransform="matrix(0.3216 0.9469 -0.9469 0.3216 899.4136 -1355.8387)">
					<stop offset="0" style="stop-color:#FFFFAA"/>
					<stop offset="0.5808" style="stop-color:#F0B21C"/>
					<stop offset="0.6314" style="stop-color:#ECAC1B"/>
					<stop offset="0.6996" style="stop-color:#E09B17"/>
					<stop offset="0.7777" style="stop-color:#CC7F12"/>
					<stop offset="0.8629" style="stop-color:#B0580A"/>
					<stop offset="0.9481" style="stop-color:#8F2900"/>
				</linearGradient><path class="st75" d="M191,385c2.7-1.1,5-2.8,7.6-4c0.1-0.1,0.1-0.3-0.1-0.2c-2.4,0.8-4.4,2.3-6.7,3.4c-2.3,1-4.7,1.9-7,2.8&#10;&#9;&#9;&#9;&#9;&#9;c-2.6,1-5.3,1.8-8.1,2.2c-1.8,0.3-3.6,0.1-5.4,0c3.8-0.9,7.5-1.9,11.1-3.7c2.2-1.1,4.2-2.4,6.1-4c2.2-1.9,4.1-4.1,6.8-5.4&#10;&#9;&#9;&#9;&#9;&#9;c0.1,0,0-0.2-0.1-0.1c-4,1.1-6.8,5.4-10.3,7.4c-3.5,2.1-7.2,3.3-11,4.4c2.5-1.3,4.8-3.2,6.9-5c1.6-1.4,3.2-3,4.8-4.4&#10;&#9;&#9;&#9;&#9;&#9;c2-1.8,4.2-3.3,6.2-5.1c0.1-0.1,0-0.2-0.1-0.1c-7,4.5-12.7,12.5-20.7,15.2c1.4-1.1,2.9-2.1,4.3-3.3c1.5-1.4,2.9-2.8,4.2-4.4&#10;&#9;&#9;&#9;&#9;&#9;c1.5-1.8,2.8-3.8,4.1-5.8c0.8-1.2,2.3-4,3.8-4.7c0.1,0,0-0.1,0-0.1c-0.7,0-1.2,1-1.6,1.4c-1.8,2-3.2,4.3-4.7,6.5&#10;&#9;&#9;&#9;&#9;&#9;c-1.8,2.4-3.9,4.6-6.1,6.6c-1.4,1.2-3,2.2-4.4,3.4c1.8-2.2,2.8-5.2,3.8-7.6c2-4.8,4.8-8.8,8.2-12.8c0.1-0.1-0.1-0.1-0.1-0.1&#10;&#9;&#9;&#9;&#9;&#9;c-2.7,2.7-4.9,5.7-6.7,9c-1.7,3-2.7,7.1-4.8,10.1c1.4-2.7,1.3-6.2,1.5-9.1c0.2-2.8,0.8-14.6,5.7-14.2c0.1,0,0.1-0.1,0-0.1&#10;&#9;&#9;&#9;&#9;&#9;c-3.1-0.5-4.3,4.2-5.1,6.4c-0.9,2.6-1.1,5.3-1.2,7.9c-0.3,4.2-0.5,7.5-2.8,11c0,0.1,0,0.3,0.4,0.8c0.2,0.3,0.5,0.3,0.7,0.3&#10;&#9;&#9;&#9;&#9;&#9;c4.9,0,8.2,0,12.9-1.6C185.7,387.2,188.3,386,191,385z" style="fill: url('#SVGID_72_');" transform="matrix(1, 0, 0, 1, -55.65631973743439, -291.56324005126953)"/><g transform="matrix(1, 0, 0, 1, -55.65631973743439, -291.56324005126953)">
				<path class="st44" d="M169.4,389.8c0.6-4.6-1.8-30.3-3.6-34.8c-0.3-0.8-0.8,0.2-0.7,1.1c1.2,5.7,3.6,28.5,3.6,33.6&#10;&#9;&#9;&#9;&#9;&#9;C168.7,390.5,169.2,390.6,169.4,389.8z" style="fill: rgb(240, 178, 28);"/>
				
					<path d="M 166.899994 355.200012 A 1.5 1.3 0 0 1 165.399994 356.500012 A 1.5 1.3 0 0 1 163.899994 355.200012 A 1.5 1.3 0 0 1 165.399994 353.900012 A 1.5 1.3 0 0 1 166.899994 355.200012 Z" transform="matrix(0.3181 0.948 -0.948 0.3181 449.5079 85.3968)" class="st45" style="fill: rgb(143, 41, 0);"/>
			</g><path class="st44" d="M169.4,390.1c2-3.3,7.8-25.2,7.6-29.8c0-0.8-0.8-0.3-0.9,0.5c-0.7,5.2-5.7,24.7-7.2,28.8&#10;&#9;&#9;&#9;&#9;&#9;C168.6,390.2,169,390.7,169.4,390.1z" style="fill: rgb(240, 178, 28);" transform="matrix(1, 0, 0, 1, -55.65631973743439, -291.56324005126953)"/><path class="st45" d="M176.6,361.7c-0.7-0.2-1.2-0.9-1.2-1.7c0-0.8,0.5-1.3,1.2-1.1c0.7,0.2,1.2,0.9,1.2,1.7&#10;&#9;&#9;&#9;&#9;&#9;C177.8,361.4,177.2,361.9,176.6,361.7z" style="fill: rgb(143, 41, 0);" transform="matrix(1, 0, 0, 1, -55.65631973743439, -291.56324005126953)"/><path class="st44" d="M169.3,389.5c-2-3.3-18.4-18.8-22.6-20.9c-0.8-0.4-0.6,0.6,0,1c4.2,3.1,19,16.8,21.9,20.1&#10;&#9;&#9;&#9;&#9;&#9;C169.1,390.3,169.7,390.1,169.3,389.5z" style="fill: rgb(240, 178, 28);" transform="matrix(1, 0, 0, 1, -55.65631973743439, -291.56324005126953)"/><path class="st45" d="M147.8,369.6c-0.5,0.5-1.4,0.6-2.1,0.2c-0.7-0.4-0.9-1.1-0.4-1.6c0.5-0.5,1.4-0.6,2.1-0.2&#10;&#9;&#9;&#9;&#9;&#9;C148.1,368.4,148.3,369.1,147.8,369.6z" style="fill: rgb(143, 41, 0);" transform="matrix(1, 0, 0, 1, -55.65631973743439, -291.56324005126953)"/>



</svg>