<?xml version="1.0" encoding="utf-8"?>
<!-- Generator: Adobe Illustrator 24.2.3, SVG Export Plug-In . SVG Version: 6.00 Build 0)  -->
<svg version="1.1" id="Calque_1" xmlns="http://www.w3.org/2000/svg" xmlns:xlink="http://www.w3.org/1999/xlink" x="0px" y="0px"
	 viewBox="0 0 1145 319" style="enable-background:new 0 0 1145 319;" xml:space="preserve">
<style type="text/css">
	.st0{fill:#FFFFFF;stroke:#000000;stroke-miterlimit:10;}
	.st1{fill:#FFFFFF;}
	.st2{fill:#569A24;}
	.st3{fill:#0B93E1;}
</style>
<path class="st0" d="M608.6-383.8"/>
<path class="st0" d="M609.9-440"/>
<path class="st1" d="M503,267.1l13.4,0.1c0.1-0.3,0.2-0.7,0.3-1C512.1,265.9,507.5,266.3,503,267.1z"/>
<path class="st2" d="M390.3-443.1"/>
<g id="XMLID_2_">
	<g>
		<path class="st3" d="M572.2,88.7c0,0-562.8,199.3-561.8,198.6L524.6,30c30-15,67.3-14.8,97.1,0.4l506.1,259.1L572.2,88.7z"/>
		<path class="st3" d="M1133.5,292.5c-0.7,0.9-0.7,0.3-0.7-0.4L1133.5,292.5z"/>
		<path class="st3" d="M1127.8,289.6l4.7,1.7c0.1,0.2,0.2,0.5,0.2,0.8L1127.8,289.6z"/>
	</g>
</g>
<path class="st3" d="M910.4-315.4"/>
<path class="st3" d="M517.4-601.6"/>
<path class="st3" d="M123.8-316.2"/>
<path class="st3" d="M1222.9-194.9"/>
<path class="st3" d="M903.7-433.4"/>
</svg>
